<?xml version="1.0" standalone="no"?>
<!DOCTYPE svg PUBLIC "-//W3C//DTD SVG 20010904//EN"
 "http://www.w3.org/TR/2001/REC-SVG-20010904/DTD/svg10.dtd">
<svg version="1.0" xmlns="http://www.w3.org/2000/svg"
 width="1080.000000pt" height="1080.000000pt" viewBox="0 0 1080.000000 1080.000000"
 preserveAspectRatio="xMidYMid meet">

<g transform="translate(0.000000,1080.000000) scale(0.100000,-0.100000)"
fill="#000000" stroke="none">
<path d="M0 8416 c0 -1312 4 -2387 8 -2390 15 -9 82 6 75 17 -4 7 0 8 13 3 22
-10 16 -10 112 2 40 6 79 15 87 22 10 9 23 9 47 2 34 -11 147 -10 165 1 5 4
26 2 47 -4 20 -6 44 -9 54 -8 21 3 54 -11 64 -25 4 -6 1 -17 -5 -25 -9 -12 -9
-13 0 -7 7 4 13 2 13 -3 0 -6 9 -11 21 -11 15 0 19 -4 15 -16 -7 -19 10 -44
30 -44 9 0 14 11 14 29 0 28 2 29 45 28 25 -1 40 2 35 7 -5 5 -6 15 -3 22 3 8
-1 14 -9 14 -9 0 -14 12 -14 36 0 21 -6 41 -15 48 -16 11 -22 46 -8 46 8 0 5
24 -6 60 -3 10 -1 21 5 25 7 4 7 12 0 26 -6 10 -8 19 -4 19 3 0 1 7 -6 15 -8
9 -8 15 -2 15 6 0 12 -5 14 -12 2 -6 10 -8 17 -4 7 5 9 12 3 19 -59 77 -55
300 8 416 10 21 6 28 -48 84 -32 34 -66 77 -76 95 l-17 32 -93 0 -94 0 -7 83
c-4 45 -7 181 -8 302 -1 224 5 285 50 498 l17 79 35 -6 c20 -3 196 -9 392 -12
l356 -7 5 39 c3 21 32 91 63 154 l58 115 8 160 c4 88 4 176 0 195 l-7 35 -77
3 -77 3 0 -57 c0 -41 -5 -63 -20 -81 -11 -14 -20 -20 -20 -13 0 10 -3 10 -16
-1 -12 -10 -17 -10 -23 -1 -4 7 -20 13 -37 14 -16 1 -33 4 -39 7 -5 2 -19 6
-31 7 -26 3 -49 -35 -41 -65 3 -14 1 -19 -6 -14 -7 4 -8 0 -3 -13 5 -12 4 -16
-3 -9 -12 12 -31 115 -31 166 0 24 5 39 16 43 24 9 26 8 14 -13 -5 -11 -10
-39 -10 -63 1 -35 2 -40 11 -25 6 11 8 32 5 49 -4 23 0 35 19 54 l24 24 -29 0
c-23 0 -30 5 -30 20 0 38 42 130 86 190 24 33 44 69 44 80 0 11 5 20 10 20 6
0 10 8 10 18 0 10 39 83 86 162 87 146 110 192 79 155 -17 -20 -17 -19 -12 8
2 15 2 25 -1 22 -9 -9 -31 16 -26 30 3 7 -3 16 -15 20 -12 3 -21 10 -21 15 0
5 7 7 15 4 9 -4 15 0 15 10 0 9 -8 16 -20 16 -28 0 -40 30 -40 99 0 33 -4 63
-10 66 -5 3 -10 15 -10 26 0 11 -4 17 -10 14 -5 -3 -10 -16 -10 -27 0 -30 -14
-13 -16 20 -1 15 -2 33 -3 40 0 7 -9 12 -18 10 -13 -2 -17 3 -15 17 2 11 6 50
9 86 l5 66 -31 1 c-41 1 -54 10 -48 34 9 34 -9 67 -32 61 -15 -4 -21 -1 -21
12 0 14 -7 16 -35 13 -34 -4 -50 14 -23 25 8 4 7 6 -3 6 -21 1 -32 28 -16 35
9 5 9 7 0 12 -7 3 -13 14 -13 25 0 10 -5 18 -12 16 -6 -1 -16 14 -22 33 -6 19
-33 79 -59 132 -26 54 -48 101 -48 105 0 5 -7 12 -15 16 -8 4 -14 12 -14 18 0
5 -18 34 -40 64 -30 40 -36 55 -25 55 10 0 13 -5 9 -12 -6 -10 -5 -10 8 0 11
9 133 13 504 17 269 3 566 7 659 10 l170 5 81 -85 c177 -185 282 -397 312
-630 l7 -56 55 83 c75 115 212 295 305 403 95 109 187 205 197 205 22 0 2 -46
-42 -97 -157 -181 -223 -264 -326 -405 -63 -86 -114 -161 -114 -167 0 -8 109
-11 360 -11 198 0 360 4 360 8 0 5 -7 32 -16 61 -23 80 -11 84 17 5 l24 -69
560 -8 c307 -4 565 -5 572 -3 7 3 13 18 13 34 0 49 46 215 83 301 36 82 167
310 178 311 17 0 184 -189 239 -271 86 -129 114 -189 186 -389 l62 -175 56 -3
56 -3 0 609 c0 335 3 624 6 641 l6 31 1184 0 1184 0 -2 -167 -3 -168 -405 -5
c-438 -5 -770 2 -865 20 -88 16 -180 48 -267 92 -43 21 -78 35 -78 31 0 -5 5
-37 11 -73 6 -36 14 -230 17 -432 4 -201 10 -369 13 -373 12 -12 799 -17 813
-5 8 6 37 13 65 17 61 7 61 18 1 22 -13 1 -20 8 -20 21 0 17 7 20 48 21 26 1
53 1 60 0 8 -1 16 7 19 18 8 30 29 32 44 5 7 -14 19 -22 26 -20 9 4 13 -3 13
-19 0 -18 -5 -25 -20 -25 -34 0 -22 -17 18 -25 20 -4 43 -11 50 -17 7 -7 172
-12 455 -16 243 -2 450 -9 460 -14 9 -5 17 -17 17 -27 0 -15 -12 -20 -72 -27
l-72 -9 -20 -50 c-27 -68 -38 -77 -104 -85 -34 -4 71 -8 252 -9 l309 -1 -7 57
c-6 49 -13 63 -51 104 -25 26 -70 87 -101 136 -128 200 -147 226 -371 501
-103 125 -71 116 61 -18 137 -139 240 -273 342 -442 37 -62 85 -131 106 -153
l37 -40 -16 45 c-57 167 84 530 296 759 l40 43 653 -3 c359 -1 656 -4 659 -6
3 -1 -30 -39 -74 -83 -45 -44 -75 -80 -68 -80 7 0 9 -5 5 -12 -5 -7 -2 -9 8
-6 15 6 18 -3 20 -57 1 -16 3 -24 5 -17 8 21 25 13 21 -10 -2 -16 -9 -22 -21
-20 -13 2 -16 -3 -13 -20 3 -13 5 -33 5 -46 1 -13 5 -20 11 -17 6 4 10 -6 10
-24 0 -16 5 -33 10 -36 6 -3 10 -10 10 -16 0 -5 -4 -9 -10 -9 -5 0 -10 7 -10
15 0 8 -4 15 -10 15 -5 0 -10 -15 -10 -34 0 -19 -4 -37 -9 -41 -6 -3 -8 -32
-6 -63 3 -52 1 -59 -18 -67 -13 -6 -22 -19 -21 -32 0 -13 -4 -19 -13 -16 -9 3
-13 -3 -13 -20 0 -16 -13 -37 -34 -58 -19 -18 -37 -43 -41 -56 -4 -17 -11 -23
-22 -19 -10 4 -14 2 -10 -8 4 -9 -1 -17 -12 -21 -11 -3 -22 -16 -25 -28 -8
-32 -7 -129 2 -124 4 3 5 -25 4 -61 -8 -137 24 -172 164 -180 l80 -4 24 -52
c13 -28 25 -62 26 -76 2 -13 8 -26 13 -28 6 -2 11 -12 11 -21 0 -10 9 -26 20
-36 11 -10 19 -27 19 -39 0 -33 13 -80 25 -88 6 -4 11 -11 12 -15 2 -22 27
-99 36 -110 5 -7 7 -26 3 -42 -7 -31 7 -66 34 -89 13 -11 -28 -12 -245 -8
l-261 6 -21 -47 c-51 -122 -54 -140 -62 -388 -5 -132 -7 -242 -4 -244 2 -2 57
-8 121 -12 65 -4 170 -13 233 -19 67 -7 161 -9 226 -6 l111 7 12 -73 c17 -104
34 -550 26 -708 -4 -74 -8 -136 -9 -137 -5 -6 -200 -21 -211 -17 -15 6 -70
-50 -94 -94 -7 -14 -21 -83 -31 -152 -20 -147 -36 -180 -80 -174 -15 3 -31 0
-35 -5 -4 -7 -15 -5 -31 5 -13 9 -24 12 -25 8 0 -5 -7 5 -14 21 -8 17 -14 24
-15 17 0 -7 5 -23 12 -35 18 -34 37 -136 38 -198 0 -64 -23 -139 -51 -165 -10
-9 -19 -21 -19 -26 0 -4 55 -8 123 -8 67 -1 152 -7 190 -14 68 -13 98 -26 60
-26 -32 0 -265 -166 -378 -269 -39 -35 -168 -131 -177 -131 -2 0 -5 113 -6
252 -3 374 -29 552 -93 643 -12 17 -18 22 -15 12 24 -74 38 -139 51 -247 20
-169 19 -232 -4 -279 -23 -44 -153 -220 -198 -268 -30 -32 -30 -33 -8 -33 32
0 155 65 186 99 l26 28 6 -201 c4 -119 12 -221 20 -251 l13 -50 7 55 c4 30 7
86 7 124 0 59 2 67 17 62 9 -4 59 -16 110 -27 94 -20 371 -97 428 -119 28 -11
23 -13 -118 -61 -133 -44 -217 -79 -301 -126 l-30 -16 37 -29 c20 -16 68 -72
108 -123 78 -103 133 -146 214 -166 28 -7 64 -18 80 -25 30 -13 29 -13 -22
-14 -29 0 -99 -6 -155 -14 -57 -8 -129 -18 -160 -21 -65 -7 -73 -18 -25 -34
46 -16 136 -134 132 -176 0 -5 -4 -16 -9 -23 -5 -9 2 -32 19 -63 31 -58 47
-151 35 -205 -11 -49 -2 -97 17 -90 10 4 13 1 8 -14 -4 -13 2 -26 19 -41 15
-13 26 -27 26 -32 0 -5 10 -18 21 -28 23 -20 29 -40 36 -132 4 -49 2 -61 -14
-72 -10 -8 -13 -15 -8 -16 6 -1 -3 -5 -20 -9 -18 -5 30 -8 121 -9 128 -1 154
-4 165 -18 25 -29 11 -838 -17 -1010 l-5 -33 -267 0 c-245 0 -336 6 -547 36
l-30 4 2 687 c0 379 4 713 7 743 l6 55 -58 -110 c-263 -497 -801 -1080 -1472
-1593 -96 -74 -230 -190 -320 -277 -292 -284 -500 -431 -815 -573 -111 -50
-174 -76 -357 -144 -24 -9 -26 -13 -21 -46 21 -130 89 -264 161 -318 20 -16
39 -32 40 -36 5 -10 722 -11 722 0 0 4 -71 6 -157 6 -87 -1 -144 1 -128 3 37
6 58 23 28 23 -29 0 -38 16 -16 30 13 8 14 13 6 16 -8 4 -13 25 -13 55 0 37
-4 49 -15 49 -10 0 -15 10 -15 26 0 22 -2 25 -15 14 -13 -10 -15 -9 -15 12 0
17 6 24 22 25 11 1 25 8 29 15 7 10 9 10 9 -2 0 -13 2 -13 9 0 6 8 8 17 5 21
-2 4 6 9 17 12 12 3 19 10 16 14 -3 5 -2 15 3 23 8 13 52 15 262 15 l253 0 5
-87 c3 -48 8 -89 11 -93 9 -8 74 -21 126 -24 16 -1 21 -6 17 -16 -4 -8 -2 -15
4 -15 6 0 12 6 15 13 3 7 8 3 14 -11 5 -13 20 -28 33 -35 18 -9 25 -22 28 -50
3 -35 2 -37 -25 -38 l-28 -1 30 -8 c49 -13 97 -12 89 2 -5 8 -2 9 9 5 9 -3 19
-2 22 2 3 5 14 7 25 4 18 -5 19 -3 10 21 -8 21 -7 26 5 26 8 0 15 4 15 10 0 5
-6 7 -14 4 -8 -3 -17 0 -22 7 -4 8 -3 10 4 5 17 -10 15 7 -3 30 -15 19 -15 19
-9 -1 5 -19 5 -19 -6 -2 -7 10 -9 21 -6 24 3 4 0 13 -7 22 -10 14 -10 14 4 3
9 -7 29 -31 45 -55 15 -23 43 -61 62 -85 l33 -42 73 0 c118 0 130 5 156 61 13
27 26 49 30 49 4 0 12 -10 18 -22 9 -19 11 -20 13 -5 3 27 4 31 12 44 4 6 5
17 3 25 -5 14 -10 46 -22 138 -4 30 -11 60 -16 67 -6 7 -5 14 3 19 19 11 98 5
128 -11 27 -13 29 -13 40 12 21 45 102 144 145 175 22 17 67 42 99 55 38 17
59 33 62 47 3 11 10 44 15 71 6 28 20 82 31 120 l20 70 154 -3 153 -3 12 63
c7 35 14 115 17 179 5 98 2 128 -17 200 -12 46 -22 91 -23 99 -1 8 -5 20 -10
25 -22 29 -106 179 -103 183 3 2 27 0 53 -6 26 -5 38 -10 26 -11 -30 -1 -40
-21 -18 -38 11 -7 13 -13 6 -13 -7 0 -9 -5 -6 -10 4 -6 11 -8 16 -4 5 3 8 2 7
-3 -1 -4 3 -18 10 -31 7 -12 10 -26 7 -31 -3 -5 11 -26 30 -46 19 -21 33 -41
30 -45 -3 -4 5 -10 16 -13 15 -4 20 -11 16 -21 -5 -12 0 -16 19 -16 39 0 61
-16 68 -50 3 -18 15 -43 26 -57 11 -14 17 -29 14 -34 -3 -5 -1 -9 4 -9 11 0
32 160 31 241 0 35 -4 87 -9 114 -4 28 -7 51 -6 52 6 7 75 -11 70 -18 -3 -5 0
-9 5 -9 6 0 11 -9 11 -20 0 -18 10 -25 32 -21 11 1 30 -38 23 -49 -3 -6 1 -10
10 -10 11 0 14 -6 9 -24 -4 -16 0 -34 10 -48 9 -12 16 -30 16 -40 0 -10 5 -18
11 -18 5 0 8 -4 4 -9 -3 -6 1 -13 8 -18 8 -4 16 -15 19 -23 3 -9 9 -2 15 19 8
30 10 23 21 -66 7 -55 24 -142 38 -194 13 -52 29 -111 35 -131 l10 -38 107 0
c147 0 152 -2 152 -56 0 -23 -5 -46 -10 -49 -6 -4 -8 -11 -4 -16 3 -5 0 -16
-6 -24 -7 -8 -9 -22 -6 -31 4 -11 -1 -18 -15 -21 -11 -3 -18 -11 -15 -19 3 -7
-6 -24 -19 -38 -26 -28 -77 -34 -145 -17 -19 5 -55 12 -80 15 l-45 6 64 -36
c86 -49 192 -152 246 -238 24 -39 59 -114 77 -166 32 -92 32 -99 32 -260 0
-135 -4 -181 -21 -250 -44 -176 -123 -310 -260 -441 -49 -46 -93 -86 -98 -89
-6 -3 -9 -9 -7 -14 2 -5 -4 -6 -12 -3 -8 3 -20 -2 -28 -11 -9 -11 -10 -14 0
-8 6 4 12 3 12 -3 0 -8 20 -8 40 -1 3 1 9 2 14 1 5 -1 4 5 -4 13 -12 16 -5 21
23 17 4 0 7 3 7 7 0 4 11 9 25 10 28 2 32 -9 10 -28 -8 -7 -12 -16 -9 -21 3
-5 0 -9 -5 -9 -6 0 -11 7 -11 15 0 8 -4 15 -10 15 -5 0 -10 -11 -10 -25 0 -19
4 -23 18 -18 11 4 10 0 -6 -11 -23 -18 -47 -13 -36 7 5 9 3 9 -6 0 -11 -10
-11 -15 1 -29 8 -10 9 -15 3 -11 -7 4 -14 -1 -17 -11 -2 -9 -8 -25 -12 -34 -5
-14 -2 -18 14 -18 12 0 21 -4 21 -8 0 -13 -209 -22 -498 -22 -285 0 -327 6
-447 66 -220 111 -430 368 -505 619 -6 22 -14 47 -16 55 -3 9 -19 -13 -38 -55
-46 -98 -137 -246 -211 -340 -64 -82 -207 -225 -225 -225 -6 0 -13 7 -17 16
-4 11 17 39 64 87 92 94 158 176 225 278 78 120 149 257 135 261 -7 2 -174 2
-372 1 -198 -1 -465 -2 -594 -3 -152 0 -239 -5 -248 -11 -7 -6 -21 -8 -30 -5
-12 5 -14 4 -8 -2 6 -6 19 -12 30 -14 17 -3 20 -12 23 -71 2 -37 -1 -67 -6
-67 -5 0 -9 -6 -10 -12 -4 -35 -26 -126 -35 -145 -5 -12 -7 -29 -3 -38 3 -9 2
-14 -2 -11 -13 8 -32 -75 -29 -127 2 -39 -1 -47 -15 -47 -14 0 -18 -9 -18 -40
0 -42 -12 -52 -29 -22 -6 9 -10 13 -10 7 0 -20 27 -45 48 -45 11 0 21 -6 21
-13 0 -8 -14 -11 -45 -9 -27 3 -45 0 -45 -6 0 -6 8 -10 18 -8 9 2 28 0 42 -5
17 -5 8 -6 -29 -5 -32 2 -56 9 -62 17 -6 10 -9 10 -9 2 0 -19 -58 -16 -63 2
-4 12 -5 11 -3 -2 1 -19 27 -28 118 -37 53 -6 68 -4 81 8 9 9 21 16 27 16 20
0 84 37 144 84 66 51 72 50 133 -9 33 -32 44 -65 21 -65 -9 0 -8 -4 2 -10 13
-9 13 -10 0 -10 -13 0 -13 -2 -1 -9 8 -5 80 -10 160 -12 80 -1 163 -3 184 -4
l38 -1 2 -162 2 -162 1557 0 1558 0 0 5400 0 5400 -5400 0 -5400 0 0 -2384z
m10010 1714 c0 -5 -2 -10 -4 -10 -3 0 -8 5 -11 10 -3 6 -1 10 4 10 6 0 11 -4
11 -10z m-2721 -95 c0 -5 -8 6 -19 25 -11 19 -19 40 -19 45 0 6 8 -6 19 -25
11 -19 19 -39 19 -45z m2725 -60 c3 -8 1 -15 -4 -15 -6 0 -10 7 -10 15 0 8 2
15 4 15 2 0 6 -7 10 -15z m-8997 -177 c-3 -8 -6 -5 -6 6 -1 11 2 17 5 13 3 -3
4 -12 1 -19z m9320 -1140 c-3 -8 -6 -5 -6 6 -1 11 2 17 5 13 3 -3 4 -12 1 -19z
m-9867 -77 c0 -6 -4 -12 -9 -16 -6 -3 -13 -26 -17 -50 -3 -25 -10 -48 -15 -51
-5 -3 -9 -20 -9 -39 0 -19 -4 -36 -8 -39 -5 -3 -9 -22 -10 -42 -1 -20 -6 -42
-12 -48 -5 -7 -14 -30 -19 -52 -5 -21 -9 -29 -10 -18 -2 43 87 364 100 364 5
0 9 -4 9 -9z m637 -183 c-3 -7 -5 -2 -5 12 0 14 2 19 5 13 2 -7 2 -19 0 -25z
m-17 -52 c0 -2 -7 -6 -15 -10 -8 -3 -15 -1 -15 4 0 6 7 10 15 10 8 0 15 -2 15
-4z m-733 -178 c-3 -8 -6 -5 -6 6 -1 11 2 17 5 13 3 -3 4 -12 1 -19z m6383
-6708 c0 -96 -3 -120 -14 -120 -16 0 -27 37 -21 69 2 12 5 45 6 72 2 28 6 52
11 55 4 3 8 14 8 25 0 10 2 19 5 19 3 0 5 -54 5 -120z m280 -815 c0 -8 -4 -15
-10 -15 -5 0 -10 7 -10 15 0 8 5 15 10 15 6 0 10 -7 10 -15z m2864 -124 c-9
-9 -34 -9 -34 -1 0 5 9 8 20 7 10 -1 17 -3 14 -6z"/>
<path d="M762 10418 c-7 -9 -5 -17 6 -28 14 -13 15 -12 9 5 -5 11 -3 22 5 27
8 5 9 8 2 8 -6 0 -16 -6 -22 -12z"/>
<path d="M993 9980 c-1 -11 2 -22 8 -25 5 -4 8 3 6 14 -4 28 -12 34 -14 11z"/>
<path d="M1675 9890 c-22 -4 -52 -14 -68 -22 -24 -13 -25 -17 -12 -28 8 -7 12
-17 9 -22 -4 -6 -10 -5 -15 3 -8 11 -13 9 -29 -9 -10 -13 -16 -30 -13 -37 6
-18 -13 -20 -21 -2 -4 6 -4 1 -2 -12 3 -14 1 -30 -5 -37 -5 -7 -11 -29 -13
-50 -2 -21 -9 -40 -15 -42 -6 -2 -10 2 -9 8 2 7 -4 15 -12 17 -12 4 -12 3 -2
-5 11 -7 10 -12 -3 -26 -9 -9 -13 -16 -8 -16 4 0 1 -5 -8 -10 -24 -14 -18
-140 10 -212 18 -47 33 -66 83 -103 77 -59 84 -62 92 -32 10 40 100 169 151
217 27 25 62 59 78 75 17 17 28 26 25 20 -3 -5 28 6 70 27 63 30 95 38 177 46
55 5 105 8 110 5 19 -10 -50 47 -110 91 -63 46 -158 97 -262 140 -64 27 -117
31 -198 16z m-97 -92 c-2 -6 -10 -13 -16 -14 -7 -1 -8 0 -2 3 5 2 8 9 4 14 -3
5 0 9 6 9 7 0 10 -5 8 -12z"/>
<path d="M9140 9841 c-105 -29 -201 -84 -294 -171 -54 -50 -109 -124 -99 -134
4 -3 22 -6 40 -6 59 0 175 -31 249 -66 89 -42 163 -119 193 -199 12 -31 21
-66 22 -78 1 -12 4 -33 8 -45 6 -24 7 -23 64 19 71 53 130 139 158 230 29 97
24 222 -12 299 -48 101 -145 172 -233 169 -17 0 -60 -9 -96 -18z"/>
<path d="M7097 9790 c-4 -16 0 -20 19 -20 23 0 23 1 7 20 -10 11 -18 20 -19
20 -1 0 -4 -9 -7 -20z"/>
<path d="M1493 9751 c0 -11 5 -18 9 -15 4 3 5 11 1 19 -7 21 -12 19 -10 -4z"/>
<path d="M1491 9694 c0 -11 3 -14 6 -6 3 7 2 16 -1 19 -3 4 -6 -2 -5 -13z"/>
<path d="M2540 9663 c-8 -3 -29 -15 -46 -26 l-32 -21 61 -20 c66 -23 107 -65
107 -112 0 -21 -5 -24 -39 -24 l-38 0 -6 -53 c-18 -147 -129 -335 -259 -438
-28 -22 -65 -61 -82 -86 -67 -102 -228 -231 -349 -280 -34 -14 -109 -37 -167
-52 l-105 -27 -32 -53 c-42 -70 -72 -161 -80 -238 -3 -34 -10 -60 -15 -57 -8
5 -23 -47 -22 -78 1 -10 -2 -18 -7 -18 -4 0 -11 -17 -14 -37 -3 -21 -10 -46
-15 -55 -6 -11 -5 -18 3 -21 7 -3 3 -6 -8 -7 -18 -1 -18 -2 -3 -11 9 -5 15
-16 12 -24 -3 -8 6 -21 23 -32 15 -9 30 -21 34 -25 7 -10 57 -16 154 -18 76
-2 78 -3 35 -11 -59 -12 -220 6 -269 29 l-37 18 -17 -135 c-15 -115 -18 -238
-19 -791 -1 -737 -5 -694 75 -772 25 -24 88 -66 140 -94 l94 -51 42 107 c68
176 137 277 430 625 109 130 161 228 167 315 16 207 28 330 43 415 l17 100 57
6 c32 4 60 9 63 11 18 19 6 254 -18 327 -6 18 -19 43 -29 55 -10 11 -25 30
-34 41 -11 15 -11 8 4 -31 19 -51 19 -52 1 -125 -11 -41 -27 -122 -36 -181
-13 -81 -21 -109 -33 -112 -9 -3 -111 -19 -228 -38 l-212 -33 -6 -35 c-11 -69
-25 -317 -25 -442 0 -86 -4 -129 -12 -134 -18 -11 -442 -33 -452 -23 -7 7 34
200 50 230 8 15 14 34 14 42 0 7 7 22 15 33 13 16 13 12 -1 -34 -8 -29 -12
-57 -9 -62 3 -6 1 -10 -4 -10 -6 0 -11 -10 -11 -22 0 -15 14 3 43 53 49 85
106 163 218 295 43 51 95 118 116 150 l38 59 3 125 4 125 42 35 c22 19 160
155 306 301 274 275 349 341 529 470 l106 76 -1 71 c-1 39 -10 103 -19 142
-10 39 -16 73 -14 75 2 2 85 5 184 7 200 3 186 9 171 -64 -5 -24 11 -16 167
89 160 107 204 139 167 118 -13 -8 -13 -7 -1 8 15 18 26 23 16 7 -3 -5 -1 -10
4 -10 6 0 11 4 11 10 0 5 5 9 12 7 6 -1 18 12 26 28 18 36 34 48 44 32 5 -8 9
-6 14 6 3 9 14 17 24 17 10 0 24 7 31 17 13 15 12 15 -8 4 -13 -6 -23 -8 -23
-3 0 14 47 35 68 30 14 -4 19 -1 18 11 -1 11 8 17 29 18 17 1 25 0 18 -3 -7
-3 -9 -13 -6 -21 5 -13 2 -15 -13 -9 -14 5 -16 4 -8 -4 8 -8 18 -8 37 1 15 7
27 15 27 18 0 4 8 7 18 8 22 2 252 80 261 89 3 3 -5 3 -18 -1 -23 -7 -23 -7
-7 16 20 30 105 49 170 39 25 -4 43 -3 41 1 -3 4 15 9 40 11 48 3 63 -8 18
-14 -45 -6 175 -20 252 -16 65 3 68 4 43 15 -52 23 -30 32 77 30 58 -1 105 2
105 6 0 4 -7 21 -15 38 -17 31 -14 31 -110 7 -26 -7 -274 -10 -692 -9 l-652 2
-5 -23 c-3 -13 -7 -39 -8 -58 l-3 -35 -329 0 -328 0 -17 65 c-16 66 -48 131
-66 136 -6 1 -17 0 -25 -3z m1219 -237 c-12 -10 -69 -24 -69 -16 0 5 10 11 23
13 31 6 51 8 46 3z m-105 -40 c-3 -8 -12 -12 -21 -9 -12 5 -12 7 -1 14 20 13
28 11 22 -5z"/>
<path d="M5566 9615 c-9 -26 -7 -32 5 -12 6 10 9 21 6 23 -2 3 -7 -2 -11 -11z"/>
<path d="M6010 9489 c-52 -4 -174 -7 -271 -8 -284 -2 -420 -11 -427 -30 -3 -9
-10 -19 -16 -23 -6 -4 5 -8 24 -8 65 0 543 -88 800 -148 23 -5 24 -4 7 12 -9
10 -17 24 -17 33 0 20 57 120 74 130 7 5 15 16 19 26 5 14 0 17 -32 17 -22 0
-45 1 -53 3 -7 2 -56 0 -108 -4z"/>
<path d="M6662 9479 c3 -8 18 -45 33 -84 19 -50 40 -82 71 -112 75 -71 174
-135 276 -179 111 -48 152 -75 293 -188 304 -244 700 -601 969 -873 105 -107
232 -233 281 -281 354 -340 518 -510 566 -587 84 -136 324 -513 329 -518 3 -3
5 232 6 521 0 412 3 545 15 612 17 102 15 394 -3 605 l-13 140 -50 -3 c-60 -4
-151 15 -304 62 -165 51 -250 111 -400 281 -155 176 -227 287 -261 403 l-13
42 -139 0 c-160 0 -616 27 -668 39 l-35 9 35 1 c43 2 70 21 70 50 0 12 -3 20
-7 18 -5 -3 -14 1 -21 9 -11 12 -8 14 20 14 23 0 29 3 19 9 -8 5 -212 10 -455
10 -243 1 -481 4 -530 8 -75 5 -88 4 -84 -8z"/>
<path d="M5243 9433 c9 -2 23 -2 30 0 6 3 -1 5 -18 5 -16 0 -22 -2 -12 -5z"/>
<path d="M9088 9370 c16 -19 15 -38 -3 -57 -8 -8 -13 -19 -10 -24 4 -5 -10
-25 -29 -45 -20 -21 -36 -43 -36 -51 0 -7 -3 -13 -8 -13 -4 0 -16 -17 -27 -37
-30 -58 -133 -156 -194 -185 -29 -14 -49 -28 -43 -32 6 -3 37 -9 69 -12 117
-13 255 36 356 126 51 46 57 56 57 90 0 81 -51 183 -116 232 -16 12 -23 15
-16 8z"/>
<path d="M4254 9345 c-190 -42 -429 -147 -650 -286 -310 -195 -565 -392 -539
-417 3 -3 12 4 21 16 9 13 22 21 29 20 8 -2 14 1 13 6 0 10 22 26 37 26 5 0 4
-5 -3 -12 -19 -19 -14 -25 18 -20 17 2 27 9 23 15 -3 6 -1 7 5 3 7 -4 12 -16
12 -27 0 -10 7 -19 15 -19 8 0 15 5 15 10 0 6 11 10 24 10 14 0 28 5 31 10 3
6 25 10 48 10 28 0 37 -3 28 -9 -11 -7 -9 -11 8 -21 22 -11 22 -12 4 -32 -18
-21 -18 -21 7 -8 38 19 80 62 73 74 -3 6 -3 8 2 4 4 -4 60 43 124 104 125 121
300 264 423 346 95 64 284 163 294 154 4 -4 3 -1 -1 7 -6 11 -4 13 9 8 10 -4
15 -3 11 3 -9 14 -42 12 -48 -2 -2 -7 -8 -10 -12 -5 -14 12 11 30 43 31 17 1
28 4 25 9 -5 9 -14 8 -89 -8z m-12 -47 c-9 -9 -15 -9 -24 0 -9 9 -7 12 12 12
19 0 21 -3 12 -12z"/>
<path d="M5286 9321 c-4 -5 -2 -70 4 -143 5 -73 16 -227 25 -343 8 -115 22
-280 30 -365 13 -139 19 -400 8 -359 -5 21 -43 32 -60 17 -13 -10 -415 -6
-458 5 -11 3 -33 6 -48 6 -16 1 -26 4 -24 9 3 4 -11 8 -31 9 -94 4 -263 32
-201 33 11 0 11 2 -1 10 -13 8 -13 10 1 10 9 0 19 6 22 14 4 9 -16 2 -48 -17
-30 -17 -51 -35 -48 -40 3 -6 1 -7 -5 -3 -6 3 -117 -47 -247 -111 l-237 -118
209 -6 c431 -13 731 -79 921 -202 37 -24 77 -49 90 -56 12 -6 47 -32 77 -56
45 -37 55 -41 59 -27 5 19 22 166 32 276 3 37 9 64 13 60 5 -5 25 -60 46 -122
25 -73 45 -117 57 -123 18 -10 443 -119 462 -119 4 0 3 7 -4 15 -10 13 -9 15
9 15 14 0 20 4 15 12 -4 6 -3 8 4 4 15 -9 80 25 88 47 3 9 10 17 15 17 6 0 7
5 4 11 -4 6 2 13 14 16 12 3 21 11 21 19 0 7 6 11 14 8 8 -3 19 8 29 28 9 18
17 27 17 21 0 -16 20 -17 20 -2 0 6 9 22 20 36 11 14 20 22 20 18 0 -4 7 -2
15 5 8 7 12 16 9 22 -3 5 8 14 25 21 17 6 33 19 36 28 3 9 13 20 23 23 9 4 27
12 40 20 21 12 22 15 8 29 -13 12 -13 16 -2 20 8 3 22 -1 33 -8 23 -18 39 -19
21 -2 -7 7 -47 37 -88 67 -416 301 -598 474 -764 725 -85 130 -127 210 -197
385 -63 156 -79 184 -93 161z"/>
<path d="M5760 9266 c0 -2 11 -6 25 -8 13 -3 22 -1 19 3 -5 9 -44 13 -44 5z"/>
<path d="M4921 9077 c-7 -9 -9 -22 -5 -28 4 -7 3 -9 -3 -6 -6 4 -28 -14 -49
-41 -76 -92 -199 -205 -393 -359 -313 -251 -418 -341 -558 -487 -72 -75 -129
-136 -127 -136 3 0 -13 -24 -34 -52 -22 -29 -42 -61 -46 -72 -6 -17 -2 -18 46
-12 29 4 57 11 63 16 5 4 102 54 215 111 417 208 562 295 761 452 151 121 264
258 352 432 53 104 55 109 43 113 -6 1 -11 -5 -12 -14 -4 -27 -15 -30 -30 -9
-8 11 -18 20 -22 21 -30 2 -71 17 -67 25 4 5 -7 6 -25 3 -20 -4 -30 -3 -30 5
0 7 -10 11 -22 9 -16 -2 -26 4 -33 21 -9 21 -12 22 -24 8z"/>
<path d="M6330 9045 c0 -3 45 -27 100 -55 57 -29 97 -44 94 -36 -4 11 1 13 18
10 17 -4 19 -3 8 4 -20 13 -220 83 -220 77z"/>
<path d="M1235 8920 c-4 -6 -11 -7 -17 -4 -7 4 -8 2 -4 -5 6 -9 11 -9 22 0 14
11 18 19 10 19 -3 0 -8 -5 -11 -10z"/>
<path d="M3213 8633 c9 -2 23 -2 30 0 6 3 -1 5 -18 5 -16 0 -22 -2 -12 -5z"/>
<path d="M3770 8090 c0 -5 5 -10 10 -10 6 0 10 5 10 10 0 6 -4 10 -10 10 -5 0
-10 -4 -10 -10z"/>
<path d="M3738 8083 c7 -3 16 -2 19 1 4 3 -2 6 -13 5 -11 0 -14 -3 -6 -6z"/>
<path d="M4758 7803 c12 -2 30 -2 40 0 9 3 -1 5 -23 4 -22 0 -30 -2 -17 -4z"/>
<path d="M4438 7773 c7 -3 16 -2 19 1 4 3 -2 6 -13 5 -11 0 -14 -3 -6 -6z"/>
<path d="M4368 7753 c7 -3 16 -2 19 1 4 3 -2 6 -13 5 -11 0 -14 -3 -6 -6z"/>
<path d="M4248 7720 c-361 -133 -608 -331 -706 -567 -33 -77 -26 -77 16 2 93
175 195 288 352 389 71 46 246 130 345 166 50 18 92 34 94 36 12 11 -32 -1
-101 -26z"/>
<path d="M4486 7725 c6 -15 1 -16 -38 -10 -40 6 -48 4 -61 -15 -11 -15 -16
-18 -20 -8 -4 9 -8 10 -14 2 -4 -6 -15 -11 -24 -11 -23 0 -179 -65 -179 -75 0
-4 -8 -8 -18 -8 -10 0 -27 -8 -38 -17 -11 -10 -26 -19 -34 -21 -8 -2 -22 -10
-31 -18 -8 -8 -20 -14 -26 -14 -6 0 -13 -7 -17 -15 -4 -12 -2 -13 12 -6 10 5
24 6 31 1 10 -6 9 -9 -7 -14 -25 -8 -35 -42 -37 -125 -1 -39 -6 -66 -13 -69
-15 -5 -16 -23 -2 -20 6 2 17 -12 25 -29 10 -24 11 -33 2 -33 -7 0 -5 -6 5
-16 14 -14 26 -14 139 6 222 40 594 38 894 -5 17 -2 22 -2 12 1 -12 4 -16 12
-12 24 5 14 2 17 -14 13 -16 -4 -19 -1 -14 15 3 14 -2 24 -17 32 -17 9 -19 14
-9 26 7 8 8 14 3 13 -16 -4 -44 13 -38 22 3 5 -1 9 -8 9 -19 0 -37 44 -26 64
6 11 5 18 -6 22 -9 3 -16 13 -16 22 0 12 -3 13 -12 4 -20 -20 -36 -14 -40 16
-2 15 -7 27 -13 26 -5 0 -19 8 -29 18 -13 12 -22 14 -27 7 -4 -7 -8 -5 -12 5
-4 9 -14 16 -22 16 -9 0 -14 4 -11 9 3 5 -1 14 -9 21 -8 7 -15 17 -15 22 0 20
-30 38 -64 38 -19 0 -41 6 -48 14 -10 9 -20 11 -31 5 -24 -14 -56 9 -54 39 1
14 -4 27 -11 29 -8 3 -10 -1 -6 -12z m-21 -45 c3 -5 1 -10 -4 -10 -6 0 -11 5
-11 10 0 6 2 10 4 10 3 0 8 -4 11 -10z"/>
<path d="M8163 7725 c47 -179 87 -499 87 -696 l0 -106 106 -124 c58 -68 127
-146 153 -174 26 -27 80 -88 120 -135 107 -123 104 -121 96 -83 -3 18 -8 54
-9 80 -4 59 -22 239 -39 396 -12 101 -16 120 -35 133 -12 8 -22 26 -22 39 0
14 -12 68 -26 122 -14 54 -28 108 -31 120 -7 31 -235 286 -363 408 -31 29 -41
35 -37 20z"/>
<path d="M6846 7684 c22 -27 88 -116 147 -199 119 -168 189 -245 247 -275 57
-29 156 -53 183 -44 12 4 31 8 42 8 11 0 29 12 40 26 17 22 25 25 53 19 32 -6
32 -6 32 31 0 25 5 40 15 44 9 3 15 14 13 23 -2 12 4 19 20 21 13 2 26 10 29
18 3 8 17 15 32 15 17 1 20 3 9 6 -10 2 -18 9 -18 15 0 6 9 8 20 5 12 -3 31 0
44 7 23 12 23 12 -14 30 -21 10 -44 15 -51 11 -7 -5 -10 -4 -6 2 9 14 -229
118 -408 178 -150 50 -290 84 -415 101 l-55 7 41 -49z"/>
<path d="M3135 7690 c-131 -44 -121 -40 -106 -49 7 -5 12 -11 12 -15 -3 -20 1
-24 17 -21 11 2 19 -3 19 -11 0 -8 -4 -14 -9 -14 -4 0 -8 -8 -8 -18 0 -10 -6
-24 -12 -32 -7 -8 -2 -5 12 6 14 11 64 53 113 93 123 102 116 112 -38 61z
m-65 -50 c0 -5 -2 -10 -4 -10 -3 0 -8 5 -11 10 -3 6 -1 10 4 10 6 0 11 -4 11
-10z"/>
<path d="M4520 7700 c-12 -8 -9 -10 13 -10 15 0 27 5 27 10 0 13 -20 13 -40 0z"/>
<path d="M5958 7553 c7 -3 16 -2 19 1 4 3 -2 6 -13 5 -11 0 -14 -3 -6 -6z"/>
<path d="M6000 7540 c8 -5 22 -9 30 -9 10 0 8 3 -5 9 -27 12 -43 12 -25 0z"/>
<path d="M1795 7503 c11 -3 23 -10 27 -17 5 -7 8 -5 8 7 0 12 -7 17 -27 16
-22 -1 -23 -2 -8 -6z"/>
<path d="M2436 7458 c-3 -13 -7 -62 -10 -110 -3 -48 -13 -119 -21 -159 -22
-103 -11 -97 13 8 21 88 40 283 29 283 -4 0 -9 -10 -11 -22z"/>
<path d="M7786 7394 c-11 -8 -16 -14 -10 -14 13 0 39 18 34 24 -3 2 -14 -2
-24 -10z"/>
<path d="M4930 7379 c0 -5 5 -7 10 -4 6 3 10 8 10 11 0 2 -4 4 -10 4 -5 0 -10
-5 -10 -11z"/>
<path d="M5410 7309 c0 -14 6 -31 13 -38 10 -10 8 -11 -7 -5 -16 6 -17 3 -12
-24 4 -17 3 -33 -3 -37 -7 -4 -9 1 -5 12 5 17 5 17 -6 0 -6 -9 -8 -22 -5 -27
3 -6 0 -10 -7 -10 -9 0 -9 -3 2 -10 14 -9 7 -14 -13 -11 -5 1 -6 -3 -3 -8 4
-5 3 -11 -2 -13 -4 -1 -34 -55 -66 -118 -68 -136 -195 -327 -380 -575 -354
-472 -465 -676 -510 -938 -26 -149 3 -337 71 -472 14 -27 25 -66 25 -85 0 -24
2 -29 7 -17 6 16 13 9 43 -40 62 -99 190 -245 254 -288 213 -143 407 -314 485
-427 70 -102 144 -289 164 -413 9 -53 19 -34 46 91 20 91 74 272 84 283 3 2
12 -4 20 -15 13 -17 13 -16 3 13 -14 39 -10 50 67 167 58 87 160 188 266 262
229 159 266 190 340 278 95 114 129 173 170 306 31 99 33 114 33 250 0 118 -5
160 -22 225 -50 182 -182 396 -487 790 -308 398 -379 508 -524 815 l-11 25 3
-27 c2 -15 0 -25 -5 -22 -13 8 -6 -28 8 -43 6 -7 11 -30 10 -51 -1 -27 2 -38
10 -35 15 6 23 -27 13 -55 -12 -31 -29 -28 -30 6 -2 23 -2 24 -6 5 -5 -27 -23
-31 -24 -5 0 9 -2 34 -5 54 -2 20 0 39 6 43 5 3 10 11 10 17 0 6 -9 1 -20 -12
-26 -30 -25 -18 4 65 18 51 22 76 15 98 -11 40 -19 46 -19 16z m60 -140 c0 -6
-4 -7 -10 -4 -5 3 -10 11 -10 16 0 6 5 7 10 4 6 -3 10 -11 10 -16z m-2 -215
c4 2 9 -5 9 -17 1 -12 10 -27 19 -34 15 -11 14 -13 -10 -24 -19 -9 -23 -15
-15 -25 7 -9 7 -18 -2 -31 -21 -35 71 -258 201 -487 62 -110 118 -197 303
-471 102 -150 172 -327 183 -462 12 -149 -47 -328 -153 -457 -58 -72 -174
-177 -200 -180 -10 -2 -18 -8 -18 -15 0 -17 -35 -42 -48 -34 -6 3 -7 2 -4 -4
3 -5 -3 -17 -14 -27 -17 -14 -23 -15 -37 -4 -15 11 -15 11 -5 -3 11 -13 8 -20
-17 -42 -30 -27 -46 -35 -35 -18 3 5 1 13 -5 16 -6 4 -9 1 -8 -7 2 -8 -6 -13
-19 -13 -11 0 -25 -4 -29 -8 -5 -4 -1 -5 7 -2 11 4 18 -1 22 -14 3 -14 0 -21
-10 -21 -8 0 -12 4 -9 9 7 11 -21 8 -31 -4 -4 -4 -3 -5 3 -2 23 13 33 -17 14
-40 -10 -13 -21 -23 -25 -23 -4 0 -2 6 4 13 6 8 7 18 3 22 -4 5 -1 5 6 1 6 -4
12 -2 12 3 0 6 -8 11 -19 11 -21 0 -36 -38 -21 -55 5 -6 1 -20 -11 -35 -14
-18 -17 -20 -12 -6 5 14 3 17 -7 11 -9 -5 -11 -4 -6 4 4 7 -2 15 -16 20 -13 6
-17 10 -9 10 8 1 22 -6 32 -15 11 -10 19 -12 24 -5 3 6 -1 14 -9 17 -9 3 -14
9 -12 13 2 3 -6 7 -19 7 -25 2 -49 -35 -39 -61 4 -8 1 -15 -5 -15 -6 0 -11 -5
-11 -11 0 -5 5 -7 11 -4 6 4 13 -2 16 -14 3 -11 9 -18 14 -15 5 3 6 -2 3 -10
-5 -13 -8 -13 -23 2 -10 9 -31 35 -47 57 -16 22 -33 43 -38 46 -5 4 -5 12 -1
19 5 9 4 11 -3 6 -6 -4 -28 9 -48 28 -20 18 -60 51 -90 72 -29 22 -56 45 -59
52 -2 7 0 10 5 7 6 -3 10 -1 10 4 0 6 -5 11 -12 11 -6 0 -9 2 -6 5 10 11 39
-8 34 -22 -4 -9 -1 -11 5 -7 7 4 21 -4 31 -17 11 -13 16 -17 12 -9 -6 12 -5
13 7 2 11 -10 11 -15 2 -20 -9 -5 -6 -12 9 -21 19 -12 20 -11 14 4 -5 15 -4
16 8 6 11 -10 15 -8 19 6 3 10 5 4 6 -14 1 -33 15 -51 26 -33 3 5 11 10 16 10
6 0 7 -5 3 -12 -4 -6 -3 -8 4 -5 11 8 6 38 -15 77 -7 14 -13 31 -13 38 0 20
-50 15 -50 -5 -1 -17 -1 -17 -14 -1 -7 10 -17 14 -21 10 -5 -4 -5 -1 -1 6 4 6
14 12 22 12 8 0 12 5 9 11 -4 6 -13 8 -21 5 -8 -3 -14 1 -14 8 0 8 -7 16 -14
19 -11 4 -13 1 -9 -11 6 -15 5 -15 -11 -3 -9 8 -15 20 -12 28 5 12 -5 17 -29
14 -5 -1 -1 6 10 15 20 16 20 16 -5 11 -15 -4 -31 0 -42 10 -10 9 -21 13 -26
8 -4 -4 -1 -10 6 -12 14 -5 16 -23 3 -23 -5 0 -12 9 -16 19 -6 21 -53 56 -62
47 -3 -3 -2 -13 2 -23 27 -61 0 -64 -55 -7 -25 26 -39 43 -31 39 9 -5 12 -4 7
3 -4 7 -14 12 -22 12 -13 0 -19 12 -15 33 1 5 -3 6 -8 3 -5 -3 -15 2 -22 11
-12 14 -12 16 0 9 9 -6 12 -5 9 5 -3 8 -10 13 -16 12 -25 -6 -104 167 -128
280 -36 170 1 367 108 580 36 72 78 143 241 400 154 243 290 548 312 697 4 25
14 53 23 63 15 17 16 17 24 -3 4 -12 11 -19 16 -16z m42 -124 c0 -5 -5 -10
-11 -10 -5 0 -7 5 -4 10 3 6 8 10 11 10 2 0 4 -4 4 -10z m-409 -2067 c12 -16
12 -17 -2 -6 -20 16 -32 6 -16 -12 8 -9 18 -10 29 -4 14 8 16 6 12 -8 -4 -14
-1 -13 14 5 24 26 28 27 36 6 3 -8 2 -12 -4 -9 -6 3 -10 1 -10 -5 0 -6 -4 -8
-10 -5 -9 6 -14 -8 -11 -27 2 -16 -15 -6 -59 34 -25 22 -37 38 -28 35 10 -4
20 -2 23 3 8 13 10 13 26 -7z"/>
<path d="M5385 5930 c-37 -59 -100 -191 -124 -258 -38 -111 -52 -195 -53 -312
-1 -178 25 -265 165 -548 l80 -163 54 103 c105 199 144 305 163 440 28 191
-37 418 -196 684 -31 51 -58 94 -60 94 -2 0 -15 -18 -29 -40z"/>
<path d="M4970 4844 c0 -8 4 -13 9 -10 5 4 18 -6 29 -21 12 -16 20 -21 19 -13
-2 15 -41 60 -52 60 -3 0 -5 -7 -5 -16z"/>
<path d="M5630 4648 c0 -4 6 -8 14 -8 8 0 17 4 20 8 2 4 -4 8 -15 8 -10 0 -19
-4 -19 -8z"/>
<path d="M5370 4551 c0 -17 18 -21 24 -6 3 9 0 15 -9 15 -8 0 -15 -4 -15 -9z"/>
<path d="M5395 4519 c-4 -6 -4 -13 -1 -16 3 -4 6 -1 6 6 0 7 5 9 12 5 7 -4 8
-3 4 4 -9 15 -13 15 -21 1z"/>
<path d="M6580 7284 c0 -11 58 -94 66 -94 6 0 -22 48 -47 81 -10 13 -19 19
-19 13z"/>
<path d="M5022 7154 c-1 -15 -9 -41 -17 -57 -18 -37 -18 -40 -2 -32 6 4 2 -3
-11 -14 -20 -17 -21 -23 -11 -42 10 -19 9 -21 -5 -16 -9 4 -16 2 -16 -3 0 -10
100 -41 112 -34 14 9 90 125 85 131 -3 2 4 14 15 25 25 25 18 32 -64 52 -86
20 -83 21 -86 -10z"/>
<path d="M8230 6707 c-7 -89 -11 -207 -9 -263 4 -100 4 -101 45 -155 39 -51
221 -245 193 -206 -19 27 -21 67 -3 60 8 -3 14 -2 13 3 -3 21 14 51 42 69 16
11 29 26 29 33 0 6 5 12 11 12 11 0 39 24 39 34 0 3 9 15 20 26 11 11 20 16
20 12 0 -4 8 -8 18 -9 10 -1 19 5 19 12 0 7 -52 73 -115 147 -157 183 -222
263 -269 330 l-40 57 -13 -162z"/>
<path d="M3743 6773 c-36 -17 -63 -66 -63 -112 0 -37 38 -101 60 -101 29 0 79
39 86 67 3 15 10 41 15 57 16 50 11 65 -29 85 -35 18 -41 18 -69 4z"/>
<path d="M4025 6661 c-47 -21 -92 -70 -101 -109 -3 -15 -7 -32 -9 -39 -6 -17
15 -74 33 -95 8 -10 25 -18 37 -18 32 0 99 52 117 91 18 38 30 129 17 129 -4
0 -33 -13 -63 -29 -66 -34 -65 -23 2 16 26 15 50 32 54 38 27 38 -21 47 -87
16z"/>
<path d="M9124 6487 c-2 -100 -8 -172 -23 -244 -25 -122 -26 -140 -8 -124 8 6
17 8 20 4 4 -3 7 -1 7 5 0 7 10 12 23 12 20 0 22 -5 22 -39 -1 -49 9 -44 29
16 20 59 21 186 1 289 -15 78 -52 203 -64 216 -3 4 -7 -57 -7 -135z"/>
<path d="M2694 6308 c-66 -68 -169 -176 -229 -242 -171 -184 -359 -325 -620
-463 -55 -29 -93 -53 -84 -53 15 0 391 -178 534 -252 223 -116 396 -241 553
-401 100 -102 112 -111 107 -84 -10 48 -45 102 -134 207 -137 161 -199 311
-188 458 6 76 44 222 58 222 5 0 9 -5 9 -11 0 -6 9 -72 21 -147 30 -200 55
-260 160 -382 30 -36 60 -74 66 -84 8 -15 12 1 18 75 7 92 33 266 55 362 6 27
8 52 5 57 -3 4 -1 10 4 12 9 3 49 107 55 143 2 11 4 24 5 28 0 5 6 5 11 2 6
-4 2 10 -7 29 -20 39 -48 47 -56 16 -3 -11 -10 -20 -16 -20 -8 0 -7 11 3 34
14 33 12 69 -4 91 -10 14 7 58 20 50 5 -3 10 -3 11 2 0 4 3 34 5 66 4 39 2 57
-5 53 -6 -4 -13 13 -17 43 -5 36 -10 48 -20 44 -9 -3 -14 2 -14 16 0 14 6 21
20 21 11 0 20 4 20 9 0 11 -25 32 -31 27 -2 -3 -3 12 -1 34 3 24 -2 47 -13 64
-10 14 -13 26 -9 26 5 1 -2 7 -16 15 -14 8 -44 14 -67 15 -37 0 -41 2 -37 23
2 12 2 16 -2 10 -7 -15 -34 -17 -34 -3 0 22 -21 5 -136 -112z m266 52 c18 -12
2 -12 -25 0 -13 6 -15 9 -5 9 8 0 22 -4 30 -9z m125 -580 c3 -5 4 -14 0 -20
-8 -13 -35 -1 -35 16 0 16 26 19 35 4z"/>
<path d="M3406 6313 c-4 -21 -9 -51 -12 -68 -3 -21 -2 -25 4 -15 10 16 26 120
18 120 -2 0 -7 -17 -10 -37z"/>
<path d="M8130 6326 c0 -2 -4 -26 -10 -55 -10 -51 -9 -52 35 -110 129 -170
204 -380 205 -577 0 -170 -62 -400 -165 -606 -30 -60 -52 -108 -49 -108 2 0
32 22 67 48 315 246 808 515 1047 573 l55 13 -65 18 c-265 77 -405 142 -573
269 -139 104 -255 215 -412 394 -117 133 -135 152 -135 141z"/>
<path d="M805 6290 c-3 -5 -2 -10 4 -10 5 0 13 5 16 10 3 6 2 10 -4 10 -5 0
-13 -4 -16 -10z"/>
<path d="M8100 6141 c0 -28 -41 -123 -89 -206 -80 -140 -220 -283 -380 -392
-2 -1 13 -53 33 -115 40 -125 76 -289 76 -349 0 -21 5 -41 12 -45 8 -5 9 -2 4
11 -6 16 -4 16 11 4 9 -8 14 -9 11 -4 -11 20 10 54 30 48 11 -2 43 3 72 11 34
10 92 16 157 16 66 0 103 4 103 11 0 6 13 8 30 5 17 -2 30 -4 30 -3 0 1 15 48
34 104 45 133 70 294 63 398 -12 157 -83 361 -171 491 -23 34 -26 36 -26 15z"/>
<path d="M3994 6124 c-4 -10 -15 -41 -26 -67 -10 -26 -18 -49 -18 -51 0 -2 23
1 50 7 28 5 50 14 50 19 0 5 -3 7 -7 5 -12 -6 -44 31 -33 38 8 5 4 54 -5 64
-3 2 -8 -5 -11 -15z"/>
<path d="M8886 6073 c4 -16 13 -35 20 -43 7 -8 22 -47 34 -85 19 -65 20 -67
15 -23 -4 44 -57 178 -70 178 -3 0 -2 -12 1 -27z"/>
<path d="M4068 6033 c7 -3 16 -2 19 1 4 3 -2 6 -13 5 -11 0 -14 -3 -6 -6z"/>
<path d="M9050 5919 c0 -5 5 -7 10 -4 6 3 10 8 10 11 0 2 -4 4 -10 4 -5 0 -10
-5 -10 -11z"/>
<path d="M850 5879 c0 -5 -6 -9 -14 -9 -7 0 -19 -6 -25 -14 -9 -11 -8 -15 4
-20 20 -7 55 10 55 27 0 8 2 9 8 1 4 -6 15 -8 26 -5 14 6 11 9 -18 18 -20 6
-36 7 -36 2z m10 -23 c0 -2 -9 -6 -20 -9 -11 -3 -18 -1 -14 4 5 9 34 13 34 5z"/>
<path d="M8964 5785 c0 -49 1 -71 3 -48 2 23 2 64 0 90 -2 26 -3 8 -3 -42z"/>
<path d="M1660 5529 c-30 -11 -91 -29 -135 -40 -138 -35 -145 -38 -145 -63 0
-93 61 -316 132 -486 82 -195 307 -584 333 -576 6 2 18 -3 28 -12 9 -8 17 -11
17 -6 0 11 47 11 75 0 52 -21 113 -53 138 -73 16 -13 37 -23 47 -23 11 0 23
-7 27 -15 9 -16 78 -47 86 -39 3 3 8 -4 12 -15 3 -12 12 -21 20 -21 21 0 26
-26 25 -149 -1 -138 8 -195 50 -321 53 -156 215 -466 328 -624 179 -251 535
-518 1009 -755 141 -70 174 -80 61 -18 -192 104 -383 271 -500 433 -61 85
-124 205 -183 349 -21 50 -68 158 -105 240 -106 235 -152 380 -149 473 1 31 3
27 15 -28 48 -224 261 -705 395 -895 76 -106 254 -288 359 -367 388 -288 902
-500 1463 -603 162 -29 167 -30 167 -10 0 8 -7 15 -17 15 -14 0 -15 2 -1 18 8
9 18 25 21 35 4 9 11 17 17 17 6 0 10 31 10 76 l0 76 24 -16 c18 -11 27 -13
32 -4 5 7 3 8 -5 3 -9 -5 -12 -1 -9 12 3 20 -2 32 -50 128 -65 131 -248 343
-400 464 -45 36 -177 127 -294 204 -299 195 -408 278 -593 457 -184 178 -261
235 -467 349 -298 163 -450 271 -588 418 -45 48 -96 112 -113 142 -34 59 -98
191 -93 191 1 0 33 -40 69 -89 124 -166 291 -313 462 -406 45 -25 104 -64 131
-88 53 -46 103 -81 109 -75 2 2 -23 35 -56 73 -151 174 -307 450 -388 687
l-40 118 -143 143 c-79 78 -150 148 -159 155 -15 11 -26 -2 -95 -105 -83 -126
-151 -248 -179 -326 -27 -73 -38 -41 -15 47 29 113 104 284 165 376 l54 80
-32 24 c-74 55 -275 171 -454 259 -155 78 -406 201 -413 204 -3 1 -30 -7 -60
-18z m225 -1149 c3 -5 1 -10 -4 -10 -6 0 -11 5 -11 10 0 6 2 10 4 10 3 0 8 -4
11 -10z"/>
<path d="M6818 5463 c-81 -92 -153 -188 -125 -164 9 7 17 10 17 5 0 -4 6 1 14
11 13 18 13 18 24 -1 10 -17 11 -15 12 14 0 21 4 31 11 26 13 -8 4 -106 -17
-183 -19 -67 -77 -182 -139 -276 -25 -38 -64 -108 -85 -155 -22 -47 -55 -115
-74 -153 l-35 -67 32 16 c52 27 196 182 254 273 29 47 53 79 53 72 0 -42 -119
-199 -232 -306 -51 -48 -83 -81 -71 -73 13 8 58 48 100 89 43 41 83 73 90 71
7 -2 61 36 119 83 58 47 125 98 147 112 160 100 223 157 299 273 71 107 115
204 147 324 13 48 9 44 -68 -72 -107 -161 -240 -304 -373 -403 -123 -91 -125
-92 -83 -9 69 136 98 331 73 493 l-13 87 -77 -87z"/>
<path d="M4010 5479 c0 -5 5 -7 10 -4 6 3 10 8 10 11 0 2 -4 4 -10 4 -5 0 -10
-5 -10 -11z"/>
<path d="M6655 5259 c-4 -6 -5 -12 -2 -15 2 -3 7 2 10 11 7 17 1 20 -8 4z"/>
<path d="M9006 5220 c7 -28 12 -35 18 -29 2 2 -2 15 -10 29 l-15 25 7 -25z"/>
<path d="M9450 5210 c-20 -6 -21 -8 -5 -8 11 0 29 3 40 8 25 11 -1 11 -35 0z"/>
<path d="M9356 5191 c-27 -6 -27 -7 -10 -22 31 -26 42 -30 50 -18 4 8 3 9 -4
5 -7 -4 -12 -2 -12 3 0 6 0 14 -1 19 0 4 10 10 23 14 19 5 20 6 3 6 -11 0 -33
-3 -49 -7z"/>
<path d="M7395 5073 c-59 -220 -168 -501 -267 -691 -176 -334 -437 -602 -734
-752 -40 -20 -70 -40 -67 -44 4 -4 0 -4 -10 0 -10 3 -17 1 -17 -6 0 -6 -4 -8
-10 -5 -5 3 -11 1 -11 -4 -1 -6 -2 -15 -3 -20 0 -5 -5 -13 -10 -18 -5 -5 -6
-3 -2 5 4 6 3 12 -3 12 -5 0 -11 -6 -14 -12 -2 -7 -7 -10 -11 -7 -4 4 0 14 9
23 9 9 12 16 6 16 -6 0 -15 -9 -21 -19 -8 -15 -18 -19 -46 -16 -20 2 -46 -1
-58 -6 -20 -9 -20 -9 2 -5 12 2 20 1 18 -3 -8 -12 -317 -12 -395 0 -42 7 -78
15 -81 19 -3 3 -25 11 -50 17 -25 6 -54 14 -65 18 -11 4 0 -13 28 -40 26 -25
52 -43 57 -40 6 4 9 1 8 -5 -5 -20 107 -76 188 -95 90 -21 263 -17 384 10 227
50 458 195 644 405 81 91 205 286 276 435 89 184 133 298 186 482 41 143 98
402 91 410 -2 2 -12 -27 -22 -64z m-1188 -1559 c-3 -3 -12 -4 -19 -1 -8 3 -5
6 6 6 11 1 17 -2 13 -5z m-37 -23 c0 -11 -78 -26 -87 -17 -4 3 6 6 20 6 15 0
27 5 27 10 0 6 9 10 20 10 11 0 20 -4 20 -9z"/>
<path d="M8610 5077 c-52 -35 -185 -118 -295 -185 -110 -66 -215 -135 -234
-154 -18 -18 -70 -80 -114 -138 -101 -131 -126 -161 -246 -285 -120 -124 -190
-205 -316 -365 -308 -393 -635 -611 -1095 -731 -95 -25 -142 -31 -270 -36
-226 -8 -378 25 -546 117 l-74 40 -57 -29 c-82 -41 -241 -89 -342 -102 -172
-23 -440 6 -624 67 -43 14 -81 24 -84 21 -10 -10 82 -70 182 -118 110 -53 268
-103 361 -115 68 -8 80 -18 199 -175 83 -111 171 -260 221 -381 55 -130 134
-488 134 -610 0 -26 4 -49 9 -52 10 -7 21 17 77 170 99 269 219 414 570 690
165 130 236 190 399 339 108 98 193 173 306 267 l57 48 27 -26 c17 -16 25 -31
21 -42 -6 -16 -5 -16 8 1 13 17 37 24 35 10 -3 -18 2 -36 7 -30 4 4 20 -1 35
-10 31 -18 39 -53 13 -53 -8 0 -12 -4 -9 -10 3 -5 22 -10 42 -10 26 0 36 -5
40 -20 3 -11 11 -20 18 -20 8 0 17 -9 20 -20 3 -11 10 -20 15 -20 5 0 15 -6
22 -13 7 -7 34 -23 61 -37 26 -14 47 -31 47 -38 0 -7 14 -15 31 -19 26 -5 30
-9 25 -29 -5 -17 -2 -24 8 -24 10 0 13 6 10 15 -5 11 1 15 26 15 18 0 29 4 25
10 -3 6 1 7 9 4 9 -3 16 -2 16 4 0 5 10 13 23 16 23 6 242 199 390 344 158
155 202 226 247 397 51 194 77 456 60 606 -6 51 -9 94 -6 96 8 8 36 -93 46
-167 5 -41 10 -113 10 -160 l0 -85 86 85 c268 265 467 601 495 835 7 66 8 65
5 -30 -7 -245 -164 -524 -456 -813 l-128 -127 -16 -125 c-21 -164 -52 -325
-78 -408 -40 -132 -121 -322 -182 -431 -20 -35 -35 -65 -34 -67 7 -6 299 218
374 287 155 143 276 285 370 436 32 52 66 94 78 99 19 6 19 7 -6 11 l-28 4 -1
112 c0 62 -4 216 -9 342 l-7 230 38 77 c94 187 130 370 95 489 -29 98 -28 98
-136 26z m-1585 -1857 c3 -5 -1 -10 -9 -10 -9 0 -16 5 -16 10 0 6 4 10 9 10 6
0 13 -4 16 -10z"/>
<path d="M3643 5069 c7 -72 33 -122 94 -180 59 -56 143 -122 148 -118 2 2 -37
51 -87 109 -53 61 -105 134 -125 175 l-35 70 5 -56z"/>
<path d="M6507 5093 c-4 -3 -6 -56 -5 -117 l1 -111 6 105 c3 58 10 111 14 118
8 12 -5 17 -16 5z"/>
<path d="M9465 5050 c10 -11 20 -20 23 -20 3 0 -3 9 -13 20 -10 11 -20 20 -23
20 -3 0 3 -9 13 -20z"/>
<path d="M3931 5025 c1 -19 18 -51 18 -35 0 8 -4 22 -9 30 -5 8 -9 11 -9 5z"/>
<path d="M6422 4908 c2 -108 3 -117 12 -75 10 50 26 64 26 22 0 -48 22 -127
32 -117 7 7 5 24 -5 54 -9 23 -21 81 -27 126 -13 93 -18 112 -31 112 -5 0 -8
-55 -7 -122z"/>
<path d="M9520 4980 c0 -6 9 -30 21 -55 18 -39 20 -56 14 -127 -4 -59 -3 -79
4 -68 6 8 11 63 11 122 0 84 -3 110 -16 122 -18 18 -34 21 -34 6z"/>
<path d="M4410 4898 c-29 -39 -31 -48 -27 -98 3 -34 19 -85 41 -132 34 -73 56
-106 37 -55 -5 12 -9 89 -9 171 -1 82 -3 150 -5 153 -3 2 -19 -15 -37 -39z"/>
<path d="M4007 4828 c22 -58 61 -118 75 -118 6 0 4 8 -5 18 -10 10 -14 22 -10
25 3 4 2 7 -4 7 -5 0 -22 25 -38 55 -33 66 -41 71 -18 13z"/>
<path d="M3345 4752 c10 -124 50 -247 151 -461 245 -516 542 -781 1023 -913
108 -30 127 -32 281 -33 164 0 165 0 268 36 126 45 244 115 314 187 51 53 51
58 -2 21 -79 -57 -301 -95 -499 -86 -274 12 -518 97 -786 275 -91 61 -156 115
-270 228 -284 280 -388 443 -461 719 l-24 90 5 -63z"/>
<path d="M3840 4765 c0 -2 11 -28 25 -57 13 -29 40 -90 59 -136 49 -117 137
-245 202 -296 l54 -41 -93 -5 -92 -5 47 -33 c26 -18 80 -48 120 -67 77 -37
119 -42 196 -24 74 16 349 13 407 -5 75 -24 85 -19 35 15 -66 45 -121 71 -255
124 -282 111 -434 213 -550 367 -74 98 -155 184 -155 163z"/>
<path d="M6369 4721 c-9 -10 -29 -53 -44 -97 -15 -43 -34 -97 -42 -119 -8 -22
-32 -78 -54 -125 -38 -80 -38 -83 -13 -60 24 23 104 135 104 146 0 3 14 25 31
50 16 24 28 48 25 53 -3 4 1 17 9 27 15 20 20 111 7 131 -6 9 -12 8 -23 -6z"/>
<path d="M6825 4658 c-54 -80 -181 -201 -285 -270 -76 -50 -197 -122 -432
-255 -43 -24 -80 -48 -83 -53 -8 -13 30 -12 155 5 58 8 137 15 175 15 93 0
127 11 279 86 71 35 136 65 145 65 26 2 -121 28 -164 29 l-40 1 25 16 c14 9
53 45 87 79 48 49 74 90 123 187 70 140 77 189 15 95z"/>
<path d="M4554 4696 c-8 -14 -19 -17 -42 -14 -30 4 -31 3 -25 -26 3 -17 15
-50 25 -73 23 -49 92 -129 84 -98 -8 34 -26 158 -29 195 -2 31 -3 33 -13 16z"/>
<path d="M6197 4595 c-3 -49 -10 -112 -16 -140 -6 -27 -13 -61 -16 -75 -3 -15
6 -5 23 25 16 28 40 68 55 89 15 21 27 44 28 50 0 6 2 18 4 28 3 16 -39 61
-49 51 -2 -3 -9 10 -14 28 -8 29 -10 22 -15 -56z"/>
<path d="M4617 4573 c-9 -9 -7 -82 3 -113 5 -17 8 -1 7 47 -1 40 -2 73 -3 73
0 0 -4 -3 -7 -7z"/>
<path d="M4511 4276 c10 -9 152 -66 156 -62 2 2 -30 18 -71 35 -68 28 -96 37
-85 27z"/>
<path d="M4724 4231 c4 -6 16 -16 28 -22 15 -8 18 -8 14 0 -4 6 -16 16 -28 22
-15 8 -18 8 -14 0z"/>
<path d="M1282 4094 c5 -33 11 -280 14 -550 l7 -490 111 4 c110 4 312 -20 441
-53 l50 -12 -75 -6 c-41 -4 -113 -9 -160 -13 l-85 -6 -18 -111 c-54 -326 -57
-401 -23 -460 16 -27 27 -66 32 -109 l7 -68 193 0 c123 0 194 4 194 10 0 6 5
10 11 10 7 0 32 16 55 36 31 24 50 33 63 29 12 -4 18 -12 14 -21 -4 -10 0 -12
13 -7 11 4 25 13 32 20 16 15 45 5 38 -13 -3 -8 -2 -14 2 -14 4 0 20 -11 36
-25 35 -30 37 -30 29 -7 -5 14 -3 13 10 -3 20 -26 13 -35 -27 -35 -35 0 -76
-34 -76 -62 0 -9 -20 -36 -43 -61 -24 -25 -47 -52 -51 -62 -3 -10 -12 -15 -21
-11 -8 3 -15 1 -15 -3 0 -9 193 -192 270 -258 34 -29 76 -51 66 -35 -3 4 15
36 39 71 60 86 65 124 27 204 -16 34 -50 97 -75 140 l-46 77 299 0 c252 0 301
2 314 15 8 8 20 15 26 15 8 0 10 8 6 23 -3 12 -6 26 -6 30 0 5 -5 5 -10 2 -6
-3 -10 1 -10 9 0 10 6 13 15 10 11 -5 15 2 16 25 2 36 2 37 17 74 7 16 12 34
12 42 0 7 3 21 6 30 5 13 8 14 15 3 6 -9 9 -6 9 10 0 20 -2 22 -22 11 -21 -11
-22 -11 -10 4 12 14 6 21 -48 54 -34 21 -83 52 -108 68 -26 17 -117 75 -202
130 -187 120 -359 247 -455 334 -142 131 -469 459 -555 557 -100 114 -258 332
-300 414 -49 95 -58 101 -48 34z m968 -1798 c0 -3 -4 -8 -10 -11 -5 -3 -10 -1
-10 4 0 6 5 11 10 11 6 0 10 -2 10 -4z"/>
<path d="M6880 4067 c-104 -97 -187 -171 -220 -195 -19 -14 -46 -39 -60 -56
l-25 -31 50 35 c45 32 317 290 305 290 -3 0 -25 -19 -50 -43z"/>
<path d="M4368 4033 c7 -3 16 -2 19 1 4 3 -2 6 -13 5 -11 0 -14 -3 -6 -6z"/>
<path d="M6390 4031 c-8 -5 -69 -19 -135 -30 -66 -12 -165 -30 -220 -41 -91
-16 -222 -57 -213 -66 2 -2 28 3 58 11 30 8 123 25 205 39 144 25 235 47 320
79 24 9 32 16 20 16 -11 0 -27 -3 -35 -8z"/>
<path d="M4418 4023 c7 -3 16 -2 19 1 4 3 -2 6 -13 5 -11 0 -14 -3 -6 -6z"/>
<path d="M4720 4010 c-52 -4 -142 -9 -200 -10 -69 -1 -98 -4 -85 -10 18 -8 18
-9 -5 -10 -39 -1 -7 -15 85 -36 64 -15 122 -18 290 -19 175 0 219 -3 265 -18
91 -30 191 -83 258 -137 99 -80 84 -52 -23 43 -197 176 -325 219 -585 197z"/>
<path d="M2155 3930 c0 -28 3 -51 7 -51 35 -6 43 -2 46 22 3 23 -30 79 -46 79
-4 0 -7 -23 -7 -50z"/>
<path d="M3950 3931 c85 -76 326 -221 410 -246 14 -4 -27 19 -90 52 -102 52
-181 101 -317 198 l-38 27 35 -31z"/>
<path d="M5780 3880 c-8 -5 -10 -10 -5 -10 6 0 17 5 25 10 8 5 11 10 5 10 -5
0 -17 -5 -25 -10z"/>
<path d="M5575 3772 c-11 -9 -42 -42 -70 -72 l-49 -55 44 41 c25 22 61 55 80
72 36 33 31 45 -5 14z"/>
<path d="M433 3405 c0 -22 2 -30 4 -17 2 12 2 30 0 40 -3 9 -5 -1 -4 -23z"/>
<path d="M402 3348 c-6 -6 -12 -18 -12 -24 0 -7 -10 -20 -22 -28 l-22 -16 27
0 c15 0 27 -5 27 -10 0 -6 -11 -8 -26 -4 -15 4 -29 2 -33 -4 -3 -6 -20 -13
-36 -16 -17 -2 -31 -5 -33 -5 -1 -1 2 -10 8 -22 10 -17 8 -21 -9 -26 -12 -3
-21 -9 -21 -13 0 -5 -9 -6 -20 -3 -12 3 -20 0 -20 -6 0 -7 -8 -11 -17 -10 -10
1 -26 -1 -36 -6 -11 -4 -23 -3 -30 4 -16 16 -30 14 -23 -5 3 -8 2 -13 -2 -10
-5 3 -21 -2 -36 -10 -16 -7 -37 -14 -47 -14 -19 0 -19 -38 -19 -1560 l0 -1560
2993 0 2992 0 -5 622 c-3 385 -9 631 -15 643 -5 12 -52 74 -104 138 -83 104
-96 116 -111 105 -10 -7 -58 -48 -106 -92 -49 -43 -99 -83 -111 -89 -22 -10
-23 -15 -23 -148 0 -130 -1 -137 -19 -132 -22 5 -92 -24 -104 -44 -4 -7 -15
-13 -22 -13 -8 0 -15 -5 -15 -11 0 -5 -4 -8 -9 -4 -6 3 -8 -4 -6 -15 6 -33
-13 -23 -35 19 -27 54 -81 251 -75 272 3 10 -1 19 -10 23 -9 3 -13 10 -10 16
3 5 1 10 -6 10 -6 0 -22 11 -35 25 -13 14 -18 25 -12 25 6 0 4 8 -5 18 -10 10
-17 35 -17 55 0 20 -4 37 -8 37 -5 0 -7 14 -4 30 4 25 2 29 -13 24 -15 -6 -16
-4 -6 14 6 12 14 47 17 79 4 32 10 66 15 75 6 11 5 18 -4 22 -6 4 -2 4 10 2
13 -2 25 -1 28 4 2 4 -22 10 -55 14 -62 7 -105 -7 -95 -32 6 -16 -33 -92 -51
-99 -8 -3 -14 -12 -14 -20 0 -8 -4 -12 -10 -8 -5 3 -17 -6 -26 -20 -13 -20
-14 -28 -4 -40 10 -12 9 -15 -8 -15 -11 0 -22 -7 -25 -14 -4 -10 -1 -13 9 -9
8 3 14 2 13 -3 -2 -5 7 -40 20 -79 29 -90 41 -164 28 -172 -23 -14 -159 -33
-242 -33 -49 0 -147 -3 -217 -7 l-126 -6 -9 -56 -8 -56 -142 -7 c-79 -4 -152
-12 -162 -18 -25 -13 -44 -13 -36 0 3 6 -4 10 -17 10 -13 0 -183 3 -379 7
-253 4 -361 3 -375 -5 -10 -6 -13 -12 -6 -12 9 0 9 -8 -3 -36 -8 -20 -16 -46
-17 -58 -1 -11 -4 11 -7 49 l-6 70 -267 3 c-311 3 -285 16 -242 -120 37 -115
61 -160 159 -289 47 -62 85 -116 85 -121 0 -31 -51 15 -151 139 -71 89 -123
181 -166 293 -20 53 -32 75 -33 59 0 -41 -37 -175 -67 -242 -103 -235 -302
-403 -549 -463 -99 -25 -275 -22 -379 5 -299 78 -560 330 -654 631 -79 252
-61 585 42 741 l30 47 19 -21 c14 -16 21 -18 24 -9 3 6 17 12 30 12 15 0 24 6
24 15 0 10 11 15 35 15 39 0 48 -16 13 -23 -20 -4 -19 -4 5 -6 15 0 44 6 64
14 19 8 48 15 64 15 16 0 29 5 29 10 0 22 38 9 44 -15 4 -14 11 -25 17 -25 11
0 69 -57 69 -68 0 -4 18 -15 39 -24 27 -12 39 -23 37 -35 -2 -10 3 -22 10 -28
8 -6 14 -36 16 -70 2 -33 8 -63 13 -67 6 -5 6 -8 -2 -8 -6 0 -18 7 -27 15 -25
25 -31 17 -7 -9 14 -14 30 -22 40 -19 14 4 14 3 1 -6 -13 -10 -13 -13 4 -26
11 -8 15 -15 10 -15 -5 0 -33 25 -62 55 -29 30 -57 55 -62 55 -10 0 -16 -48
-31 -247 -21 -295 39 -465 191 -542 108 -53 221 -50 343 10 103 51 155 97 224
198 39 58 107 224 93 229 -4 1 -29 -6 -56 -16 -54 -22 -172 -37 -204 -27 -15
5 -20 15 -20 45 0 21 -20 98 -44 172 -25 73 -47 156 -51 185 -8 62 -57 169
-108 236 -20 26 -32 47 -26 47 7 0 9 12 5 35 -5 23 -3 35 4 35 6 0 9 -4 5 -9
-3 -6 4 -15 15 -21 20 -11 21 -10 11 9 -6 11 -10 24 -10 28 8 34 -63 122 -130
161 -42 25 -54 27 -151 26 -78 0 -132 -7 -210 -27 -58 -14 -130 -29 -160 -32
-49 -6 -53 -5 -37 8 17 14 14 47 -4 47 -5 0 -8 10 -8 23 1 27 -4 48 -15 65 -4
7 -4 25 0 40 20 69 17 72 -63 72 -40 0 -73 2 -73 5 0 2 21 46 48 96 47 91 47
91 53 56 5 -35 59 -111 59 -85 0 8 4 7 11 -4 5 -10 15 -18 21 -18 6 0 17 -8
24 -17 10 -15 33 -19 148 -21 161 -5 150 -14 151 133 0 85 -6 121 -38 240 -21
77 -52 181 -69 231 l-31 90 -411 0 -411 -1 -6 50 c-17 140 -51 380 -55 384 -2
2 -4 -4 -5 -15 0 -17 -1 -18 -7 -1 -6 14 -10 15 -20 5z m4639 -1699 c-6 -13
-20 -35 -31 -49 -18 -21 -17 -17 5 28 26 53 45 68 26 21z m-3241 -495 c0 -9
-37 15 -51 33 -10 12 -5 11 19 -6 17 -12 32 -24 32 -27z m55 -24 c3 -5 -4 -6
-15 -3 -11 3 -22 9 -25 13 -3 5 4 6 15 3 11 -3 22 -9 25 -13z m102 -36 c-3 -3
-12 -4 -19 -1 -8 3 -5 6 6 6 11 1 17 -2 13 -5z m1692 -222 c50 -120 99 -191
205 -297 123 -122 214 -174 351 -202 96 -20 118 -37 58 -47 -57 -9 -1103 -20
-1103 -11 0 4 20 25 45 47 25 22 74 77 109 122 103 132 146 208 217 380 79
190 71 179 80 126 4 -25 21 -78 38 -118z m574 136 c-2 -5 -12 -8 -21 -8 -16
-1 -16 -1 1 -11 12 -7 17 -23 17 -54 0 -39 -3 -45 -21 -45 -16 0 -20 -5 -16
-20 6 -22 1 -23 -55 -14 -35 6 -38 9 -38 41 0 32 2 35 25 31 15 -3 25 -1 25 6
0 6 -11 12 -25 12 -14 1 -25 -2 -25 -7 0 -5 -8 -9 -18 -9 -14 0 -18 8 -19 37
-1 21 0 40 2 43 2 3 41 5 88 5 47 0 83 -3 80 -7z m55 -43 c2 -19 -2 -35 -7
-35 -5 0 -11 16 -13 35 -2 21 0 35 7 35 6 0 12 -16 13 -35z m-275 -2 c-7 -2
-19 -2 -25 0 -7 3 -2 5 12 5 14 0 19 -2 13 -5z m277 -58 c0 -8 -4 -15 -10 -15
-5 0 -10 7 -10 15 0 8 5 15 10 15 6 0 10 -7 10 -15z m-173 -71 c-3 -3 -12 -4
-19 -1 -8 3 -5 6 6 6 11 1 17 -2 13 -5z m230 -146 c-3 -7 -5 -2 -5 12 0 14 2
19 5 13 2 -7 2 -19 0 -25z"/>
<path d="M4172 940 c0 -14 2 -19 5 -12 2 6 2 18 0 25 -3 6 -5 1 -5 -13z"/>
<path d="M7390 2981 c-36 -15 -85 -37 -110 -48 -288 -129 -625 -216 -1084
-280 -85 -12 -120 -20 -105 -24 13 -4 20 -7 14 -8 -13 -1 -2 -144 15 -191 6
-19 14 -60 16 -90 2 -30 9 -59 14 -64 6 -6 10 -18 10 -28 0 -10 3 -18 8 -18 4
0 8 -24 8 -52 3 -90 5 -107 16 -114 6 -4 8 -2 4 4 -3 6 -1 14 5 18 6 3 15 1
19 -6 17 -28 107 -3 370 104 155 63 158 65 375 173 214 108 301 156 395 221
121 84 145 103 145 115 1 7 -7 63 -16 125 -9 62 -14 122 -11 134 4 16 2 19 -9
13 -11 -6 -11 -5 -2 5 11 12 7 40 -6 40 -3 -1 -35 -13 -71 -29z"/>
<path d="M9480 2450 c-9 -8 -27 -47 -42 -85 -14 -39 -33 -87 -42 -107 l-16
-38 87 0 88 0 -1 30 c-1 17 -2 31 -4 33 -1 1 -4 22 -6 46 -3 25 -10 53 -15 62
-5 10 -9 25 -9 34 0 9 -6 22 -12 29 -10 9 -16 8 -28 -4z"/>
<path d="M3413 2213 c34 -54 91 -127 127 -162 38 -38 105 -126 160 -210 l96
-146 -34 -23 c-31 -21 -36 -22 -51 -7 -19 16 -36 21 -27 7 3 -5 -21 -7 -52 -6
-40 1 -50 0 -32 -6 14 -4 47 -8 74 -9 55 -1 55 6 7 -109 -28 -66 -55 -197 -44
-214 5 -10 447 -11 456 -2 3 4 -1 20 -9 36 -8 16 -12 34 -8 40 4 6 3 8 -4 4
-12 -7 -27 30 -23 58 1 10 14 28 27 40 14 12 26 35 27 54 2 17 7 35 10 39 4 3
7 18 7 32 0 46 10 50 128 57 92 6 112 5 113 -7 0 -8 2 -90 4 -184 l4 -170 128
3 c131 3 204 20 276 63 23 13 25 18 12 23 -9 3 -14 2 -11 -3 3 -5 -1 -12 -10
-15 -24 -9 -28 -7 -15 7 6 8 8 17 4 20 -3 4 -1 12 4 19 6 7 9 25 8 40 -2 15 1
30 6 33 5 4 9 24 9 46 0 34 -3 39 -22 39 -19 0 -23 6 -24 33 -1 17 4 35 10 39
6 5 0 8 -14 9 -14 0 -19 3 -12 6 6 2 12 8 12 13 0 7 -61 6 -267 -5 l-103 -6 0
70 0 69 -112 27 c-62 15 -156 40 -208 57 -98 31 -254 98 -246 105 2 3 18 -2
34 -11 55 -28 161 -65 166 -57 3 4 -1 8 -8 8 -22 0 -87 33 -82 42 7 11 -113
63 -126 55 -6 -4 -8 -3 -5 3 8 13 -41 36 -55 27 -7 -5 -8 -2 -3 6 6 10 4 12
-9 7 -11 -5 -15 -3 -10 5 5 8 2 9 -10 5 -9 -4 -15 -3 -12 2 7 10 -32 31 -65
35 -33 4 -71 25 -64 36 3 5 0 12 -6 16 -8 5 -9 3 -4 -6 5 -8 3 -11 -6 -8 -8 3
-13 10 -12 16 1 5 -5 9 -15 8 -9 0 -16 5 -14 12 1 8 -2 11 -9 6 -7 -4 -20 3
-31 17 -11 13 -16 17 -12 9 4 -8 -6 -2 -21 13 -62 60 -62 44 -2 -50z m467
-203 c8 -5 11 -10 5 -10 -5 0 -17 5 -25 10 -8 5 -10 10 -5 10 6 0 17 -5 25
-10z m890 -470 c0 -11 -7 -20 -15 -20 -17 0 -18 2 -9 24 9 23 24 20 24 -4z"/>
<path d="M2060 2280 c0 -5 4 -10 9 -10 6 0 13 5 16 10 3 6 -1 10 -9 10 -9 0
-16 -4 -16 -10z"/>
<path d="M3870 2237 c0 -7 181 -79 186 -74 2 2 -33 18 -78 36 -46 18 -89 35
-95 38 -7 3 -13 3 -13 0z"/>
<path d="M1886 2097 c-16 -12 -16 -13 3 -14 22 -2 37 12 23 21 -5 3 -17 0 -26
-7z"/>
<path d="M5365 1869 c-4 -6 -5 -12 -2 -15 2 -3 7 2 10 11 7 17 1 20 -8 4z"/>
<path d="M5253 1863 c9 -2 25 -2 35 0 9 3 1 5 -18 5 -19 0 -27 -2 -17 -5z"/>
<path d="M4748 1703 c6 -2 18 -2 25 0 6 3 1 5 -13 5 -14 0 -19 -2 -12 -5z"/>
<path d="M2364 1649 c6 -40 6 -41 -17 -35 -30 7 -75 -18 -116 -66 l-32 -37 93
-62 c51 -34 109 -75 129 -91 38 -29 55 -36 44 -18 -4 6 -4 33 0 61 6 42 9 48
22 38 17 -15 53 -83 53 -102 0 -7 -8 -22 -17 -33 -10 -10 -25 -32 -33 -48 -8
-16 -39 -47 -67 -69 -29 -22 -53 -41 -53 -44 0 -13 72 41 139 104 l76 73 90 0
c50 0 97 5 105 10 13 9 13 10 0 10 -17 0 -65 93 -65 125 0 11 -6 20 -12 21 -7
1 -16 2 -20 3 -4 0 21 28 55 62 42 40 89 73 138 96 41 19 74 36 74 37 0 0
-133 2 -296 3 l-297 3 7 -41z m340 -184 c-4 -8 -11 -12 -16 -9 -6 4 -5 10 3
15 19 12 19 11 13 -6z"/>
<path d="M3084 1674 c3 -10 12 -50 20 -89 20 -96 24 -104 47 -98 10 3 19 11
19 18 0 11 65 68 80 71 21 4 39 18 33 28 -3 6 -3 8 1 4 4 -3 29 0 54 8 26 7
61 14 79 14 22 0 37 7 47 22 9 12 16 17 16 10 0 -6 7 -12 16 -12 8 0 13 4 9 9
-3 5 3 12 12 14 10 3 -40 5 -112 6 -71 1 -174 4 -229 8 -94 6 -98 5 -92 -13z"/>
<path d="M6257 1666 c-39 -12 -60 -36 -103 -118 -23 -46 -20 -64 6 -33 7 8 9
15 5 15 -5 0 1 8 12 18 11 9 18 23 15 30 -2 7 2 11 10 10 7 -2 13 4 13 12 0
18 30 43 76 63 40 18 20 20 -34 3z"/>
<path d="M9330 1623 c0 -96 -69 -261 -159 -380 -73 -97 -108 -128 -180 -161
-47 -21 -63 -24 -127 -19 -78 6 -142 29 -200 73 l-36 28 7 -50 c12 -75 41
-142 103 -227 116 -161 213 -227 337 -227 96 0 156 23 227 89 181 166 208 522
66 854 -23 52 -38 61 -38 20z"/>
<path d="M1495 1490 c3 -5 13 -10 21 -10 8 0 12 5 9 10 -3 6 -13 10 -21 10 -8
0 -12 -4 -9 -10z"/>
<path d="M5141 1424 c0 -11 3 -14 6 -6 3 7 2 16 -1 19 -3 4 -6 -2 -5 -13z"/>
<path d="M6188 1343 c7 -3 16 -2 19 1 4 3 -2 6 -13 5 -11 0 -14 -3 -6 -6z"/>
<path d="M6085 1095 c17 -104 108 -288 199 -401 68 -84 160 -165 260 -229 66
-42 206 -108 213 -101 10 9 -20 186 -33 197 -7 6 -10 18 -8 27 5 15 4 14 -6
-1 -6 -9 -10 -26 -8 -37 4 -26 -6 -24 -82 12 -198 93 -382 268 -470 447 -18
35 -41 77 -52 95 l-20 31 7 -40z"/>
<path d="M7032 970 c-1 -22 2 -40 7 -40 6 0 9 18 9 40 0 22 -4 40 -8 40 -3 0
-7 -18 -8 -40z"/>
<path d="M9674 434 c-18 -14 -18 -14 6 -3 31 14 36 19 24 19 -6 0 -19 -7 -30
-16z"/>
<path d="M7473 3 c37 -2 97 -2 135 0 37 2 6 3 -68 3 -74 0 -105 -1 -67 -3z"/>
</g>
</svg>
