<svg width="217" height="474" viewBox="0 0 217 474" fill="none" xmlns="http://www.w3.org/2000/svg">
<path opacity="0.1" d="M108.603 473.678C168.469 473.678 217 467.933 217 460.846C217 453.759 168.469 448.013 108.603 448.013C48.7363 448.013 0.205078 453.759 0.205078 460.846C0.205078 467.933 48.7363 473.678 108.603 473.678Z" fill="#007E20"/>
<path opacity="0.1" d="M122.679 120.157H97.325V143.477H122.679V120.157Z" fill="#6C63FF"/>
<path opacity="0.1" d="M122.679 177.678H97.325V200.998H122.679V177.678Z" fill="#6C63FF"/>
<path opacity="0.1" d="M122.679 235.19H97.325V258.51H122.679V235.19Z" fill="#6C63FF"/>
<path opacity="0.1" d="M122.679 292.711H97.325V316.031H122.679V292.711Z" fill="#6C63FF"/>
<path d="M200.088 218.651C200.088 218.651 185.37 151.299 191.004 142.919C191.004 142.919 191.209 135.129 190.87 125.2C190.87 124.822 190.87 124.445 190.87 124.06C191.861 124.668 192.895 125.215 193.964 125.7C199.155 128.153 205.115 128.86 210.813 127.7L206.355 123.133C205.286 122.043 204.171 120.862 203.94 119.419C203.708 117.976 204.35 116.688 204.902 115.401C209.137 105.561 209.36 93.188 201.203 85.6771C194.311 79.3633 192.635 71.2128 185.156 65.4484C179.691 61.2256 176.686 55.0348 173.851 49.0491C171.453 43.9898 169.037 38.8896 167.664 33.527C166.595 29.337 166.167 24.9994 164.696 20.9077C163.225 16.8161 160.47 12.8392 156.164 11.0107C154.631 10.3629 152.928 9.99391 151.528 9.13295C149.692 7.99319 148.586 6.14008 147.258 4.51654C140.509 -3.68315 117.91 1.14645 107.212 4.47553C104.303 5.31388 101.61 6.68633 99.2953 8.50979L99.3934 8.3622C99.4736 8.2392 99.5717 8.1162 99.6608 7.9932C98.4898 8.8641 97.4785 9.90227 96.6654 11.0681C95.1053 13.3394 94.4545 15.9879 93.1529 18.4478C91.5838 21.3587 82.856 29.4846 86.6093 32.7563C86.8723 32.976 87.1737 33.1534 87.5008 33.281C88.9097 33.8204 90.461 33.9631 91.9583 33.691L91.7978 34.0436C90.516 36.9302 89.8589 40.019 89.8632 43.1371C89.8632 56.6092 101.943 67.5311 116.858 67.5311C119.662 67.5336 122.449 67.1381 125.122 66.3586C125.184 66.6702 125.238 66.9818 125.3 67.2934C125.3 67.4164 125.345 67.5393 125.363 67.6623L124.89 68.2691C124.867 68.2317 124.84 68.1961 124.81 68.1625L110.814 86.1527C108.674 87.5384 96.3534 95.7381 95.658 101.888C94.927 108.62 94.1959 116.5 94.1959 116.5L94.0979 118.189C93.4862 118.659 92.7708 119.001 92.0012 119.193C91.2317 119.384 90.4262 119.419 89.6404 119.296C85.272 118.64 85.272 134.055 85.272 134.055C85.272 134.055 82.3657 136.515 80.3688 134.383C78.3718 132.251 73.0941 139.475 73.0941 139.475L40.0195 140.787L39.2617 140.828L37.4787 135.753C37.2868 135.217 36.873 134.773 36.3272 134.517C35.7813 134.26 35.1475 134.212 34.5635 134.383C34.4254 134.425 34.2912 134.477 34.1623 134.539L34.0375 134.605L33.8057 134.752L33.6898 134.851C33.6259 134.904 33.5663 134.961 33.5115 135.023L33.4045 135.138L33.351 135.187C33.1452 135.449 33.0089 135.751 32.9531 136.07C32.8974 136.389 32.9238 136.716 33.0301 137.024L34.5635 141.378C28.1803 142.558 21.6545 145.887 26.9768 155.055L0 150.471L8.72782 157.211L53.7842 165.763C53.1869 166.747 53.5792 168.174 55.4424 170.183C63.4659 178.85 78.0865 181.203 83.9704 181.81C85.5243 185.007 87.4652 188.033 89.7563 190.83L89.2481 199.464C89.2481 199.464 74.3511 265.275 71.6231 268.612C73.0003 267.177 74.2607 265.65 75.3942 264.045C71.0704 277.566 65.026 296.073 63.4392 298.844C60.8895 303.272 58.527 321.189 61.4333 322.336C62.3248 322.689 64.8745 322.517 68.5118 322.263V323.747L68.3513 379.989C68.3513 379.989 69.0824 414.485 67.0765 417.773C65.0706 421.061 64.5357 427.957 64.5357 427.957C64.5357 427.957 56.5122 441.56 50.1558 447.029C50.1125 447.072 50.0648 447.11 50.0132 447.144L49.817 445.865C49.817 445.865 42.1769 454.737 25.2741 454.237C25.2741 454.237 15.1021 460.321 30.1862 460.649C45.2704 460.977 64.5357 460.157 64.5357 460.157C64.5357 460.157 77.9885 441.298 89.257 443.758V458.05H92.7071V443.528C94.3071 442.559 95.6765 441.302 96.7324 439.831C97.7882 438.361 98.5085 436.709 98.8495 434.976C99.1448 433.189 98.9285 431.362 98.2219 429.675C97.5152 427.988 96.3427 426.5 94.82 425.357C94.1359 424.789 93.5871 424.096 93.2081 423.322C92.8292 422.549 92.6282 421.712 92.618 420.864L92.4931 420.962C92.4931 420.675 92.4129 420.38 92.3773 420.077C91.3877 412.697 90.1485 397.47 94.5258 386.204C100.526 370.756 102.344 349.24 97.9759 336.432C96.5664 332.338 95.4086 328.174 94.5079 323.96C94.4009 323.427 94.3029 322.919 94.2138 322.443C97.1998 322.815 100.157 323.362 103.066 324.083C113.185 326.65 135.321 327.125 154.221 326.986C154.265 327.461 154.319 327.962 154.381 328.462C154.718 331.938 155.423 335.377 156.485 338.728C158.856 345.287 159.944 374.208 159.944 374.208C159.944 374.208 163.002 397.987 161.335 407.662C160.443 413.041 159.552 418.445 159.044 423.873V423.98C159.044 423.98 154.033 437.099 150.369 444.225C150.28 444.405 150.182 444.586 150.093 444.758C149.116 444.84 148.155 445.035 147.231 445.34C147.231 445.34 142.319 454.36 137.425 455.852C132.53 457.344 134.153 462.256 145.234 460.452C156.316 458.648 173.049 457.172 173.049 457.172L173.771 447.972L177.177 444.053L176.285 453.228L179.914 452.572L179.432 441.412L185.004 435C185.004 435 191.735 429.49 181.732 418.65V418.888C181.625 418.732 181.527 418.568 181.411 418.412V418.363C179.753 416.002 178.434 411.598 180.85 403.784C185.218 389.664 187.759 376.848 187.759 376.848C187.759 376.848 197.512 342.516 185.789 326.272H186.306C185.104 323.987 184.255 321.558 183.783 319.057C183.723 318.761 183.67 318.458 183.622 318.146C192.297 317.687 200.81 316.244 207.755 313.128C207.728 313.095 203.547 231.623 200.088 218.651ZM89.9613 161.828V161.992L88.1783 162.074L89.9613 161.828ZM83.8456 162.607C83.5525 162.666 83.278 162.787 83.0433 162.959C82.2767 163.957 81.7954 165.116 81.6436 166.329L78.8621 165.755C78.8621 165.755 76.9098 165.37 74.1015 164.935L72.7732 163.705C76.4283 163.427 80.2261 163.017 83.8456 162.607Z" fill="url(#paint0_linear_32_353)"/>
<path d="M175.875 441.527L174.814 453.146L178.371 452.49L177.836 439.887L175.875 441.527Z" fill="#1D2366"/>
<path d="M94.7218 386.36C90.4337 397.593 91.6461 412.755 92.609 420.118C92.9656 422.84 93.2954 424.497 93.2954 424.497C93.2954 424.497 86.8856 437.928 86.3507 438.436C85.8158 438.944 67.4865 449.235 67.4865 449.235L54.6756 456.115C54.6756 456.115 41.6776 450.875 47.9092 449.071C49.1824 448.601 50.3292 447.882 51.2701 446.964C57.5106 441.511 65.3469 427.957 65.3469 427.957C65.3469 427.957 65.8818 421.077 67.8431 417.806C69.8044 414.534 69.0912 380.153 69.0912 380.153L69.2428 324.108V316.802L93.6253 316.966C93.7791 319.446 94.1307 321.913 94.6772 324.345C95.5524 328.545 96.6865 332.695 98.0739 336.776C102.371 349.56 100.588 370.969 94.7218 386.36Z" fill="#FFB0B1"/>
<path opacity="0.1" d="M93.2954 424.496C93.2954 424.496 86.8856 437.927 86.3507 438.436C85.8158 438.944 67.4865 449.235 67.4865 449.235L54.6756 456.114C54.6756 456.114 41.6776 450.875 47.9092 449.071C49.1824 448.601 50.3292 447.882 51.2701 446.964L51.8228 450.547L56.0932 450.383L92.6447 420.134C92.9656 422.84 93.2954 424.496 93.2954 424.496Z" fill="black"/>
<path d="M92.8499 420.897L56.0934 451.351L51.823 451.515L50.9315 445.775C50.9315 445.775 43.4608 454.614 26.861 454.122C26.861 454.122 16.8941 460.182 31.6662 460.51C46.4384 460.838 65.3025 460.018 65.3025 460.018C65.3025 460.018 78.4789 441.158 89.5068 443.618V457.861H92.8945V443.487C94.4695 442.512 95.8138 441.254 96.8465 439.788C97.8791 438.323 98.5787 436.68 98.9032 434.959C99.1965 433.187 98.9889 431.375 98.3004 429.698C97.6118 428.02 96.4655 426.534 94.9717 425.382C94.3045 424.807 93.7722 424.112 93.4073 423.341C93.0424 422.57 92.8527 421.738 92.8499 420.897Z" fill="#1D2366"/>
<path d="M179.263 403.874C176.892 411.664 178.184 416.051 179.807 418.404V418.453C181.888 421.359 183.335 424.609 184.068 428.022L184.211 428.76L167.486 451.187L158.411 454.466C158.411 454.466 143.817 449.883 146.482 448.571C147.151 448.251 148.194 446.546 149.389 444.192C152.955 437.1 157.876 424.013 157.876 424.013V423.906C158.393 418.503 159.213 413.115 160.122 407.753C161.754 398.102 158.758 374.413 158.758 374.413C158.758 374.413 157.689 345.607 155.371 339.056C154.324 335.725 153.629 332.309 153.294 328.855C152.812 324.756 152.705 321.377 152.705 321.377C152.705 321.377 162.316 309.078 179.932 322.361C181.34 323.421 182.58 324.657 183.613 326.035C195.782 341.959 185.985 377.037 185.985 377.037C185.985 377.037 183.533 389.796 179.263 403.874Z" fill="#FFB0B1"/>
<path opacity="0.1" d="M184.237 428.76L167.513 451.186L158.437 454.466C158.437 454.466 143.844 449.883 146.509 448.571C147.178 448.251 148.221 446.545 149.415 444.192C155.593 444.143 158.794 449.555 158.794 449.555L166.621 448.407C166.621 448.407 176.945 429.744 179.263 428.604C181.581 427.465 179.619 420.085 179.619 420.085V418.207C179.682 418.273 179.735 418.347 179.807 418.412V418.461C181.888 421.367 183.335 424.617 184.068 428.03L184.237 428.76Z" fill="black"/>
<path d="M159.329 450.038C159.329 450.038 154.871 442.511 146.331 445.291C146.331 445.291 141.526 454.311 136.72 455.77C131.915 457.23 133.52 462.149 144.378 460.354C155.237 458.558 171.605 457.074 171.605 457.074L172.318 447.898L183.355 434.967C183.355 434.967 189.934 429.482 180.145 418.683V420.561C180.145 420.561 182.107 427.94 179.789 429.08C177.471 430.22 167.183 448.891 167.183 448.891L159.329 450.038Z" fill="#1D2366"/>
<path opacity="0.1" d="M93.652 316.949C93.8057 319.43 94.1573 321.896 94.7039 324.329C84.6656 322.976 75.3495 323.648 69.2427 324.091V316.785L93.652 316.949Z" fill="black"/>
<path opacity="0.1" d="M184.603 328.076C184.603 328.076 170.339 328.716 153.329 328.847C152.848 324.747 152.741 321.369 152.741 321.369C152.741 321.369 162.351 309.069 179.967 322.353C181.376 323.412 182.615 324.649 183.649 326.026C183.925 326.725 184.244 327.41 184.603 328.076Z" fill="black"/>
<path d="M184.603 326.6C184.603 326.6 122.126 329.38 103.084 324.469C84.0416 319.557 65.1686 323.813 62.3247 322.673C59.4808 321.533 61.7898 303.682 64.286 299.263C66.7822 294.843 80.4756 250.147 80.4756 250.147L93.652 186.96L107.533 183.442L108.513 183.188L132.7 177.054L150.423 172.553C150.423 172.553 185.664 299.099 182.641 308.43C181.544 312.003 181.367 315.762 182.124 319.409C182.586 321.9 183.42 324.32 184.603 326.6Z" fill="#1D2366"/>
<path d="M47.7218 143.747C47.7218 143.747 35.2408 156.047 44.6907 162.902C54.1406 169.757 60.3543 163.558 60.3543 163.558L47.7218 143.747Z" fill="#C7DAF5"/>
<path opacity="0.1" d="M47.7218 143.747C47.7218 143.747 35.2408 156.047 44.6907 162.902C54.1406 169.757 60.3543 163.558 60.3543 163.558L47.7218 143.747Z" fill="black"/>
<path d="M148.56 62.882C148.56 62.882 147.098 64.1611 144.896 66.0471C141.757 68.7448 137.113 72.6888 132.994 75.9933C127.288 80.5605 122.581 83.9142 124.266 81.0525C125.951 78.1908 125.63 73.2054 124.792 68.5398C124.73 68.2282 124.676 67.9166 124.614 67.6132C123.92 64.1867 123 60.8022 121.859 57.4784C121.859 57.4784 131.077 46.5236 136.177 42.2024C138.076 40.5625 139.404 39.8901 139.484 41.0298C139.573 42.5632 140.821 45.9496 142.373 49.5411C142.417 49.6559 142.462 49.7625 142.515 49.8773C143.549 52.3372 144.717 54.8627 145.742 57.0438C147.311 60.3893 148.56 62.882 148.56 62.882Z" fill="#FFB0B1"/>
<path opacity="0.1" d="M142.515 49.8773C141.649 54.1628 139.547 58.1556 136.429 61.4385C133.312 64.7215 129.293 67.174 124.792 68.5398C124.083 64.7967 123.103 61.1014 121.859 57.4784C121.859 57.4784 139.217 36.8562 139.484 41.0298C139.547 42.6124 140.902 46.1218 142.515 49.8773Z" fill="black"/>
<path opacity="0.1" d="M123.063 74.05L125.309 71.1392C125.309 71.1392 126.798 79.4864 132.272 75.8048C137.746 72.1231 138.013 103.512 138.013 103.512L132.138 184.303L89.6849 181.966L90.8884 142.927L95.6936 123.248L107.577 94.6394L114.647 85.1852L123.063 74.05Z" fill="black"/>
<path d="M138.013 104.012L132.664 177.063L132.102 184.803L108.433 183.499L107.542 183.45L89.7115 182.466L90.9151 143.419L95.7203 123.74L107.604 95.1314L114.674 85.6771L123.089 74.5009L125.336 71.5983C125.336 71.5983 126.825 79.9456 132.299 76.2639L132.414 76.1901C137.763 73.0742 138.013 104.012 138.013 104.012Z" fill="#1D2366"/>
<path d="M96.3177 116.901C96.3177 116.901 94.187 121.001 89.9078 120.337C85.6286 119.673 85.6376 135.097 85.6376 135.097C85.6376 135.097 82.7937 137.557 80.8324 135.425C78.8711 133.293 73.7004 140.5 73.7004 140.5L41.3032 141.812C41.3032 141.812 55.7188 147.872 52.8927 166.206C52.8927 166.206 101.836 163.418 103.441 159.163C105.045 154.907 96.3177 116.901 96.3177 116.901Z" fill="white"/>
<path opacity="0.03" d="M96.3177 116.901C96.3177 116.901 94.187 121.001 89.9078 120.337C85.6286 119.673 85.6376 135.097 85.6376 135.097C85.6376 135.097 82.7937 137.557 80.8324 135.425C78.8711 133.293 73.7004 140.5 73.7004 140.5L41.3032 141.812C41.3032 141.812 55.7188 147.872 52.8927 166.206C52.8927 166.206 101.836 163.418 103.441 159.163C105.045 154.907 96.3177 116.901 96.3177 116.901Z" fill="black"/>
<path d="M2.16602 151.447L10.7066 158.154L81.0103 171.741L72.2914 163.558L2.16602 151.447Z" fill="white"/>
<path d="M123.196 76.6328C122.029 78.2727 118.685 86.6692 115.895 93.9997C113.568 100.108 111.625 105.479 111.625 105.479C111.625 105.479 107.087 132.653 104.769 137.565C102.451 142.476 103.708 161.631 103.708 161.631L95.0697 208.935C95.0697 208.935 91.156 233.329 85.1116 247.9C79.1475 262.241 72.5058 268.965 72.3008 269.178C74.9753 265.849 89.5513 200.301 89.5513 200.301L94.3654 117.631C94.3654 117.631 95.0697 109.776 95.7829 103.06C96.4961 96.3448 110.938 87.1776 110.938 87.1776L124.864 68.9661C126.263 70.688 125.327 73.6891 123.196 76.6328Z" fill="white"/>
<path d="M86.8854 182.876C86.8854 182.876 66.3809 182.056 56.4496 171.085C46.5183 160.114 79.4057 166.706 79.4057 166.706L87.9552 168.51L86.8854 182.876Z" fill="#FFB0B1"/>
<path opacity="0.1" d="M182.642 308.438C181.544 312.011 181.367 315.77 182.125 319.417C159.757 320.877 135.829 315.318 135.829 315.318C131.372 319.089 119.63 324.649 119.63 324.649L113.229 251.672C109.137 241.832 107.533 190.281 107.533 190.281C107.533 190.281 107.898 187.583 108.424 183.54C108.424 183.442 108.424 183.335 108.469 183.237C110.065 171.946 113.229 150.75 114.781 147.888C116.92 143.952 108.201 133.481 108.201 133.481L112.169 102.363L112.65 98.608C121.012 95.1724 127.422 84.2012 127.422 84.2012L132.343 76.272C137.692 73.1152 137.969 104.053 137.969 104.053L132.62 177.104L150.343 172.602C150.343 172.602 185.664 299.107 182.642 308.438Z" fill="black"/>
<path d="M205.598 313.481C181.215 324.616 136.899 314.301 136.899 314.301C132.441 318.073 120.7 323.632 120.7 323.632L114.29 250.655C110.207 240.815 108.602 189.264 108.602 189.264C108.602 189.264 113.755 150.799 115.895 146.871C116.519 145.723 116.216 144.018 115.476 142.181C111.838 133.439 110.5 124.029 111.571 114.72L113.283 101.347L113.755 97.5994C122.126 94.1555 128.536 83.1844 128.536 83.1844L132.994 76.0014L141.196 62.7671L145.083 56.5026L145.742 57.0519L150.779 61.2502C150.779 61.2502 152.919 62.8901 156.128 65.35C163.109 70.7618 175.171 80.2899 181.393 86.1198C186.867 91.2528 188.597 111.219 189.096 126.249C189.426 136.146 189.23 143.903 189.23 143.903C183.711 152.259 198.145 219.34 198.145 219.34C201.506 232.304 205.598 313.481 205.598 313.481Z" fill="white"/>
<path opacity="0.03" d="M158.794 83.0204C158.794 83.0204 142.061 112.318 144.004 123.453C145.948 134.588 151.475 147.191 148.809 150.135C147.894 151.25 146.71 152.155 145.35 152.78C143.991 153.404 142.493 153.731 140.973 153.735C138.299 153.899 131.167 158.482 131.167 158.974C131.167 159.466 124.578 159.466 118.686 161.762C112.793 164.058 104.092 165.362 104.092 165.362C104.092 165.362 87.1532 164.87 85.5753 166.346C83.9973 167.822 82.3748 176.653 85.7535 183.696C89.1323 190.74 92.8856 195.996 95.7206 196.955C98.5555 197.915 116.546 192.372 131.14 191.06C145.734 189.748 161.576 179.113 161.576 179.113C161.576 179.113 179.022 173.373 182.08 163.722C185.138 154.071 178.345 101.027 178.345 101.027C178.345 101.027 173.21 76.3049 158.794 83.0204Z" fill="black"/>
<path opacity="0.03" d="M156.654 80.5605C156.654 80.5605 139.921 109.866 141.882 120.993C143.844 132.12 149.353 144.731 146.679 147.683C145.766 148.8 144.584 149.706 143.226 150.331C141.867 150.955 140.37 151.281 138.851 151.283C136.177 151.447 129.045 156.03 129.045 156.522C129.045 157.014 122.456 157.014 116.564 159.302C110.671 161.59 101.97 162.902 101.97 162.902C101.97 162.902 85.0313 162.41 83.4623 163.886C81.8933 165.362 80.2529 174.201 83.6406 181.236C87.0283 188.272 90.7725 193.536 93.6075 194.495C96.4425 195.455 114.433 189.912 129.027 188.608C143.621 187.304 159.463 176.653 159.463 176.653C159.463 176.653 176.9 170.913 179.923 161.27C182.945 151.627 176.187 98.567 176.187 98.567C176.187 98.567 171.07 73.8532 156.654 80.5605Z" fill="black"/>
<path d="M158.268 81.5445C158.268 81.5445 141.534 110.85 143.496 121.977C145.457 133.104 150.967 145.715 148.301 148.659C147.388 149.778 146.205 150.687 144.845 151.313C143.485 151.939 141.986 152.266 140.465 152.267C137.79 152.431 130.658 157.014 130.658 157.498C130.658 157.982 124.079 157.99 118.177 160.286C112.275 162.582 103.583 163.886 103.583 163.886C103.583 163.886 86.6448 163.394 85.0668 164.87C83.4889 166.346 81.8664 175.185 85.2451 182.22C88.6239 189.256 92.3771 194.52 95.2121 195.479C98.0471 196.438 116.038 190.895 130.631 189.584C145.225 188.272 161.067 177.637 161.067 177.637C161.067 177.637 178.514 171.897 181.572 162.246C184.63 152.595 177.881 99.551 177.881 99.551C177.881 99.551 172.675 74.8699 158.268 81.5445Z" fill="white"/>
<path opacity="0.1" d="M157.903 160.147C157.903 160.147 144.53 157.687 149.184 161.787C153.837 165.887 153.811 169.478 159.507 169.314C165.204 169.15 157.903 160.147 157.903 160.147Z" fill="black"/>
<path opacity="0.1" d="M180.502 248.359C180.502 248.359 174.458 252.123 186.02 260.798C197.583 269.473 180.502 248.359 180.502 248.359Z" fill="black"/>
<path opacity="0.1" d="M168.966 279.296C168.966 279.788 166.826 297.336 174.832 301.723C182.838 306.109 168.966 279.296 168.966 279.296Z" fill="black"/>
<path d="M41.8558 141.771C35.4013 141.976 21.4583 143.788 28.6884 156.194C35.0804 167.174 45.823 159.835 51.8674 154.267C50.3929 149.077 46.8095 144.604 41.8558 141.771Z" fill="#FFB0B1"/>
<path opacity="0.1" d="M156.128 65.8503C149.281 70.1551 143.54 73.7876 142.417 74.542C139.35 76.6329 133.502 88.9078 129.731 95.1724C126.727 100.215 116.965 101.511 113.283 101.831L113.755 98.0833C122.126 94.6394 128.536 83.6682 128.536 83.6682L145.083 56.9865L150.779 61.7505C150.779 61.7505 152.919 63.3904 156.128 65.8503Z" fill="black"/>
<path d="M156.128 65.3582C149.281 69.6631 143.54 73.2956 142.417 74.0581C139.35 76.1409 133.502 88.4158 129.731 94.6803C126.727 99.7232 116.965 101.019 113.283 101.338L113.755 97.5912C122.126 94.1474 128.536 83.1762 128.536 83.1762L145.083 56.4944L150.779 61.242C150.779 61.242 152.919 62.8655 156.128 65.3582Z" fill="#DCE7FF"/>
<path d="M142.952 44.4655C142.956 49.3877 141.333 54.1947 138.298 58.2492C134.714 63.043 129.381 66.4964 123.266 67.9828C117.151 69.4693 110.659 68.8902 104.968 66.3506C99.277 63.8111 94.7644 59.4795 92.249 54.1416C89.7335 48.8037 89.3818 42.8133 91.2576 37.2573C93.1335 31.7013 97.1125 26.9479 102.473 23.8594C107.833 20.771 114.22 19.5522 120.473 20.4242C126.727 21.2962 132.434 24.2013 136.558 28.6122C140.682 33.0232 142.951 38.6478 142.952 44.4655Z" fill="#FFB0B1"/>
<path opacity="0.1" d="M189.096 126.257C185.476 124.209 182.527 121.296 180.565 117.828C179.076 115.122 178.086 111.998 175.545 110.079C173.254 108.357 170.196 107.939 167.344 107.169C157.965 104.618 150.102 96.7467 149.808 87.7598C149.665 83.5288 151.1 79.306 150.45 75.1159C150.08 72.7445 149.054 70.5001 147.472 68.5972C146.686 67.6871 145.825 66.8345 144.896 66.0471C143.648 64.9647 142.337 63.9151 141.196 62.7672C140.477 62.0564 139.849 61.2723 139.324 60.4303C138.9 59.7412 138.556 59.0128 138.298 58.2573C136.515 53.2391 138.138 47.2862 136.177 42.2106L136.07 41.9318C135.33 40.1278 133.823 38.3239 131.728 38.1845C129.633 38.0451 127.841 39.6441 125.844 40.3574C121.663 41.8498 117.152 39.3079 113.666 36.7168C110.181 34.1257 106.249 31.1656 101.818 31.7396C98.8853 32.1249 96.5674 33.9617 93.8662 34.9128C93.2563 35.13 92.6269 35.2974 91.9851 35.413C94.2711 30.1694 98.4712 25.8217 103.864 23.1169C109.256 20.4121 115.505 19.519 121.535 20.5911C127.566 21.6632 133.003 24.6336 136.911 28.9918C140.819 33.3501 142.955 38.8242 142.952 44.4737C142.955 46.1797 142.761 47.8811 142.373 49.5493C142.417 49.6641 142.462 49.7707 142.515 49.8855C143.549 52.3454 144.717 54.8709 145.743 57.052L150.779 61.2503C150.779 61.2503 152.919 62.8902 156.128 65.3501C163.109 70.7619 175.171 80.2899 181.394 86.1199C186.867 91.2693 188.579 111.227 189.096 126.257Z" fill="black"/>
<path d="M93.5542 19.932C94.829 17.5459 95.462 14.8728 96.9865 12.6097C99.2241 9.32984 103.129 7.23071 107.141 5.95976C117.616 2.63888 139.752 -2.18253 146.367 5.95976C147.668 7.5997 148.747 9.42003 150.548 10.5516C151.921 11.4126 153.579 11.7815 155.086 12.4293C159.302 14.2497 161.995 18.2183 163.43 22.269C164.865 26.3196 165.293 30.6654 166.345 34.8391C167.691 40.1935 170.054 45.2691 172.407 50.3119C175.18 56.2648 178.122 62.4392 183.471 66.6457C190.772 72.3855 192.386 80.5113 199.161 86.8087C207.185 94.2868 206.926 106.627 202.79 116.426C202.246 117.713 201.631 119.058 201.845 120.427C202.059 121.797 203.164 123.043 204.207 124.134L208.593 128.685C198.216 130.989 186.475 126.003 181.643 117.254C180.154 114.548 179.165 111.432 176.615 109.505C174.333 107.783 171.266 107.374 168.422 106.603C159.044 104.044 151.181 96.1646 150.887 87.1777C150.744 82.9549 152.179 78.732 151.528 74.5502C151.166 72.1629 150.137 69.9027 148.542 67.9904C146.09 65.0467 142.391 63.0706 140.394 59.7907C137.015 54.3051 139.582 47.1796 137.149 41.2922C136.4 39.4883 134.902 37.6844 132.807 37.545C130.712 37.4056 128.92 39.0045 126.914 39.7179C122.742 41.2102 118.231 38.6765 114.745 36.0772C111.259 33.4779 107.328 30.526 102.888 31.1082C99.9552 31.4854 97.6461 33.3221 94.9449 34.2815C92.9479 34.9867 88.9005 35.618 87.1532 34.0683C83.4624 30.9442 92.0119 22.8511 93.5542 19.932Z" fill="#591D4B"/>
<path opacity="0.1" d="M184.121 114.548C182.624 111.842 181.643 108.726 179.093 106.808C176.811 105.086 173.744 104.668 170.892 103.897C161.522 101.347 153.659 93.4667 153.356 84.4799C153.213 80.257 154.648 76.026 154.007 71.8442C153.633 69.4722 152.605 67.2278 151.02 65.3254C148.56 62.3817 144.86 60.4056 142.872 57.1257C139.493 51.6483 142.061 44.5228 139.618 38.6272C138.878 36.8315 137.371 35.0276 135.285 34.88C133.199 34.7324 131.389 36.3477 129.392 37.0611C125.22 38.5534 120.7 36.0115 117.223 33.4204C113.746 30.8293 109.797 27.8692 105.366 28.4432C102.433 28.8286 100.115 30.6653 97.4231 31.6165C95.4261 32.3217 91.3698 32.9612 89.6225 31.4115C85.9495 28.1316 94.499 20.0549 96.0324 17.1522C97.3072 14.7579 97.9402 12.093 99.4735 9.82991C99.5538 9.70691 99.643 9.58393 99.7321 9.46094C98.5851 10.3349 97.5952 11.3698 96.799 12.5276C95.2746 14.7907 94.6416 17.4474 93.3668 19.8499C91.8245 22.7526 83.275 30.8539 86.9569 34.1092C88.7399 35.6671 92.7516 35.0276 94.7486 34.3224C97.4231 33.363 99.7588 31.5263 102.692 31.1491C107.149 30.5669 111.072 33.527 114.549 36.1181C118.026 38.7092 122.572 41.2511 126.727 39.7588C128.724 39.0454 130.471 37.4383 132.611 37.5859C134.75 37.7335 136.177 39.5292 136.952 41.3331C139.386 47.2205 136.818 54.346 140.197 59.8316C142.194 63.0541 145.894 65.0712 148.346 68.0313C149.941 69.9436 150.97 72.2038 151.332 74.5911C151.983 78.7729 150.548 82.9957 150.69 87.2186C150.984 96.2382 158.847 104.085 168.226 106.644C171.052 107.414 174.137 107.824 176.419 109.546C178.978 111.473 179.985 114.589 181.447 117.295C186.279 126.044 198.02 131.03 208.397 128.725L206.329 126.577C197.334 126.7 188.231 121.993 184.121 114.548Z" fill="black"/>
<path opacity="0.1" d="M122.662 77.1248C121.494 78.7648 118.151 87.1612 115.36 94.4918C112.748 93.557 110.377 87.5958 110.377 87.5958L124.302 69.3761C125.728 71.18 124.792 74.1729 122.662 77.1248Z" fill="black"/>
<path d="M123.196 76.6328C122.029 78.2728 118.685 86.6693 115.895 93.9998C113.283 93.0732 110.912 87.1039 110.912 87.1039L124.837 68.8923C126.263 70.6881 125.327 73.6892 123.196 76.6328Z" fill="#DCE7FF"/>
<path d="M42.2304 160.401L34.51 138.008C34.4186 137.745 34.3844 137.469 34.4094 137.195C34.4344 136.92 34.518 136.653 34.6555 136.409C34.793 136.164 34.9817 135.947 35.2107 135.77C35.4397 135.592 35.7045 135.458 35.9899 135.375C36.5645 135.21 37.1867 135.261 37.721 135.516C38.2553 135.771 38.6584 136.21 38.8427 136.737L46.5631 159.105L45.7964 163.787L42.2304 160.401Z" fill="#BE8B87"/>
<path opacity="0.1" d="M35.2411 136.04C35.8168 135.872 36.4413 135.921 36.9777 136.176C37.514 136.432 37.9186 136.872 38.1028 137.401L45.8232 159.77L45.2437 163.279L45.8053 163.82L46.5721 159.138L38.8071 136.769C38.6228 136.242 38.2196 135.804 37.6853 135.549C37.151 135.294 36.5288 135.243 35.9543 135.408C35.4708 135.552 35.0535 135.841 34.7686 136.228C34.9201 136.153 35.0782 136.09 35.2411 136.04Z" fill="white"/>
<path d="M42.2305 160.401L46.5632 159.138L45.9302 162.976L45.7965 163.82L44.5306 162.607L42.2305 160.401Z" fill="#EFC8C4"/>
<path d="M44.5306 162.607C44.606 162.519 44.7 162.446 44.807 162.393C44.8697 162.357 44.9424 162.338 45.0165 162.338C45.0907 162.338 45.1633 162.357 45.226 162.393C45.2867 162.461 45.3376 162.535 45.3776 162.615C45.4365 162.705 45.5168 162.782 45.6124 162.841C45.7081 162.899 45.8167 162.937 45.9303 162.951L45.7966 163.771L44.5306 162.607Z" fill="#727A9C"/>
<path d="M34.4656 145.961C34.4656 145.961 49.9509 145.879 46.3047 151.939C42.6584 157.998 36.9618 158.728 36.9618 158.728L34.4656 145.961Z" fill="#FFB0B1"/>
<defs>
<linearGradient id="paint0_linear_32_353" x1="105.375" y1="460.846" x2="105.375" y2="0.0231274" gradientUnits="userSpaceOnUse">
<stop stop-color="#808080" stop-opacity="0.25"/>
<stop offset="0.54" stop-color="#808080" stop-opacity="0.12"/>
<stop offset="1" stop-color="#808080" stop-opacity="0.1"/>
</linearGradient>
</defs>
</svg>
