<svg width="312" height="573" viewBox="0 0 312 573" fill="none" xmlns="http://www.w3.org/2000/svg">
<path d="M312 136.166H308.562V49.9182C308.562 36.6791 302.819 23.9822 292.597 14.6207C282.374 5.25922 268.509 0 254.051 0H54.511C40.0537 0 26.1887 5.25922 15.9659 14.6207C5.74311 23.9822 0 36.6791 0 49.9182V523.082C0 536.321 5.74311 549.018 15.9659 558.379C26.1887 567.741 40.0537 573 54.511 573H254.051C268.509 573 282.374 567.741 292.597 558.379C302.819 549.018 308.562 536.321 308.562 523.082V197.559H312V136.166Z" fill="#3F3D56"/>
<path d="M256.251 12.9868H230.204C231.401 15.676 231.858 18.5937 231.535 21.4828C231.211 24.3719 230.116 27.1438 228.347 29.5543C226.578 31.9648 224.189 33.9399 221.39 35.3057C218.591 36.6715 215.469 37.3861 212.297 37.3864H97.9832C94.8118 37.386 91.6892 36.6714 88.8904 35.3055C86.0916 33.9397 83.7026 31.9645 81.9337 29.554C80.1648 27.1435 79.0705 24.3716 78.747 21.4825C78.4235 18.5935 78.8808 15.6759 80.0786 12.9868H55.7517C44.9552 12.9868 34.6009 16.9143 26.9666 23.9054C19.3323 30.8965 15.0435 40.3784 15.0435 50.2652V522.737C15.044 532.623 19.3331 542.105 26.9673 549.095C34.6015 556.086 44.9555 560.013 55.7517 560.013H256.251C261.597 560.014 266.891 559.05 271.83 557.177C276.769 555.303 281.257 552.558 285.037 549.096C288.818 545.635 291.816 541.526 293.862 537.003C295.909 532.48 296.962 527.633 296.962 522.737V522.737V50.2652C296.962 40.3784 292.673 30.8965 285.039 23.9054C277.405 16.9143 267.051 12.9868 256.254 12.9868H256.251Z" fill="white"/>
<path d="M277.554 362.28H34.3475C33.1533 362.278 32.0083 361.844 31.1639 361.07C30.3194 360.297 29.8445 359.249 29.8433 358.155V255.892C29.8445 254.798 30.3194 253.75 31.1639 252.977C32.0083 252.203 33.1533 251.768 34.3475 251.767H277.554C278.748 251.768 279.893 252.203 280.737 252.977C281.582 253.75 282.057 254.798 282.058 255.892V358.156C282.057 359.249 281.582 360.297 280.737 361.071C279.893 361.844 278.748 362.278 277.554 362.28ZM34.3475 253.418C33.631 253.418 32.9442 253.679 32.4376 254.143C31.931 254.607 31.6461 255.236 31.6453 255.892V358.156C31.6461 358.812 31.931 359.441 32.4376 359.905C32.9442 360.369 33.631 360.63 34.3475 360.63H277.554C278.27 360.63 278.957 360.369 279.464 359.905C279.97 359.441 280.255 358.812 280.256 358.156V255.892C280.255 255.236 279.97 254.607 279.464 254.143C278.957 253.679 278.27 253.418 277.554 253.418H34.3475Z" fill="#E6E6E6"/>
<path d="M275.749 229.476H167.661C166.467 229.475 165.322 229.04 164.477 228.267C163.633 227.493 163.158 226.445 163.157 225.351V170.105C163.158 169.011 163.633 167.963 164.477 167.189C165.322 166.416 166.467 165.981 167.661 165.98H275.749C276.943 165.981 278.088 166.416 278.933 167.189C279.777 167.963 280.252 169.011 280.253 170.105V225.351C280.252 226.444 279.778 227.493 278.933 228.266C278.089 229.04 276.944 229.475 275.749 229.476ZM167.657 167.631C166.941 167.632 166.254 167.893 165.747 168.357C165.241 168.821 164.956 169.449 164.955 170.106V225.351C164.956 226.007 165.241 226.636 165.747 227.1C166.254 227.564 166.941 227.825 167.657 227.826H275.749C276.466 227.825 277.152 227.564 277.659 227.1C278.166 226.636 278.451 226.007 278.451 225.351V170.105C278.451 169.449 278.166 168.82 277.659 168.356C277.152 167.892 276.466 167.631 275.749 167.63L167.657 167.631Z" fill="#E6E6E6"/>
<path d="M142.439 495.908H34.3475C33.1533 495.907 32.0083 495.472 31.1639 494.698C30.3194 493.925 29.8445 492.877 29.8433 491.783V388.695C29.8447 387.602 30.3198 386.553 31.1642 385.78C32.0086 385.007 33.1534 384.572 34.3475 384.571H142.439C143.633 384.572 144.778 385.007 145.623 385.78C146.467 386.553 146.942 387.602 146.944 388.695V491.784C146.942 492.878 146.467 493.926 145.623 494.699C144.779 495.473 143.634 495.908 142.439 495.909V495.908ZM34.3475 386.221C33.631 386.221 32.9442 386.482 32.4376 386.946C31.931 387.41 31.6461 388.039 31.6453 388.695V491.784C31.6461 492.44 31.931 493.069 32.4376 493.533C32.9442 493.997 33.631 494.258 34.3475 494.258H142.439C143.156 494.258 143.843 493.997 144.349 493.533C144.856 493.069 145.141 492.44 145.142 491.784V388.695C145.141 388.039 144.856 387.41 144.349 386.946C143.843 386.482 143.156 386.221 142.439 386.221H34.3475Z" fill="#E6E6E6"/>
<path d="M275.749 495.908H167.661C166.467 495.907 165.322 495.472 164.477 494.698C163.633 493.925 163.158 492.877 163.157 491.783V388.695C163.158 387.602 163.633 386.553 164.478 385.78C165.322 385.007 166.467 384.572 167.661 384.571H275.749C276.943 384.572 278.088 385.007 278.933 385.781C279.777 386.554 280.252 387.602 280.253 388.696V491.784C280.252 492.878 279.777 493.926 278.933 494.699C278.088 495.473 276.943 495.908 275.749 495.909V495.908ZM167.661 386.221C166.945 386.221 166.258 386.482 165.751 386.946C165.244 387.41 164.96 388.039 164.959 388.695V491.784C164.96 492.44 165.244 493.069 165.751 493.533C166.258 493.997 166.945 494.258 167.661 494.258H275.749C276.466 494.258 277.152 493.997 277.659 493.533C278.166 493.069 278.451 492.44 278.451 491.784V388.695C278.451 388.039 278.166 387.41 277.659 386.946C277.152 386.482 276.466 386.221 275.749 386.221H167.661Z" fill="#E6E6E6"/>
<path d="M142.345 229.487H40.9453L64.8044 191.637C65.232 190.958 65.8472 190.395 66.588 190.003C67.3288 189.611 68.1692 189.405 69.0246 189.405C69.8801 189.405 70.7205 189.611 71.4613 190.003C72.2021 190.395 72.8172 190.958 73.2449 191.637L83.4388 207.806L100.775 180.311C101.31 179.462 102.08 178.756 103.008 178.266C103.935 177.776 104.987 177.517 106.058 177.517C107.129 177.517 108.181 177.776 109.109 178.266C110.036 178.756 110.806 179.462 111.342 180.311L142.345 229.487ZM44.0648 227.837H139.22L109.777 181.141C109.4 180.542 108.858 180.045 108.204 179.699C107.55 179.354 106.809 179.172 106.054 179.172C105.3 179.172 104.558 179.354 103.905 179.699C103.251 180.045 102.709 180.542 102.331 181.141L83.4416 211.105L71.6871 192.462C71.4176 192.034 71.0299 191.679 70.563 191.432C70.0962 191.185 69.5666 191.056 69.0275 191.056C68.4884 191.056 67.9587 191.185 67.4919 191.432C67.025 191.679 66.6374 192.034 66.3679 192.462L44.0648 227.837Z" fill="#E6E6E6"/>
<path d="M272.054 229.487H170.655L194.514 191.637C194.942 190.958 195.557 190.395 196.298 190.003C197.039 189.611 197.879 189.405 198.734 189.405C199.59 189.405 200.43 189.611 201.171 190.003C201.912 190.395 202.527 190.958 202.955 191.637L213.148 207.806L230.484 180.311C231.02 179.462 231.79 178.756 232.717 178.266C233.645 177.776 234.697 177.517 235.768 177.517C236.839 177.517 237.891 177.776 238.818 178.266C239.746 178.756 240.516 179.462 241.051 180.311L272.054 229.487ZM173.774 227.837H268.93L239.487 181.141C239.11 180.542 238.567 180.045 237.914 179.699C237.26 179.354 236.519 179.172 235.764 179.172C235.009 179.172 234.268 179.354 233.615 179.699C232.961 180.045 232.418 180.542 232.041 181.141L213.148 211.105L201.393 192.462C201.124 192.034 200.736 191.679 200.269 191.432C199.802 191.185 199.273 191.056 198.733 191.056C198.194 191.056 197.665 191.185 197.198 191.432C196.731 191.679 196.343 192.034 196.074 192.462L173.774 227.837Z" fill="#E6E6E6"/>
<path d="M142.439 229.476H34.3475C33.1533 229.475 32.0083 229.04 31.1639 228.267C30.3194 227.493 29.8445 226.445 29.8433 225.351V170.105C29.8445 169.011 30.3194 167.963 31.1639 167.189C32.0083 166.416 33.1533 165.981 34.3475 165.98H142.439C143.634 165.981 144.779 166.416 145.623 167.189C146.467 167.963 146.942 169.011 146.944 170.105V225.351C146.942 226.444 146.467 227.493 145.623 228.266C144.779 229.039 143.634 229.474 142.439 229.475V229.476ZM34.3475 167.631C33.631 167.632 32.9442 167.893 32.4376 168.357C31.931 168.821 31.6461 169.449 31.6453 170.106V225.351C31.6461 226.007 31.931 226.636 32.4376 227.1C32.9442 227.564 33.631 227.825 34.3475 227.826H142.439C143.156 227.825 143.843 227.564 144.349 227.1C144.856 226.636 145.141 226.007 145.142 225.351V170.105C145.141 169.449 144.856 168.82 144.349 168.356C143.843 167.892 143.156 167.631 142.439 167.63L34.3475 167.631Z" fill="#E6E6E6"/>
<path d="M57.381 405.831C56.57 405.831 55.7923 406.126 55.2188 406.651C54.6454 407.176 54.3232 407.888 54.3232 408.631C54.3232 409.373 54.6454 410.085 55.2188 410.611C55.7923 411.136 56.57 411.431 57.381 411.431H119.408C120.219 411.431 120.997 411.136 121.57 410.611C122.144 410.085 122.466 409.373 122.466 408.631C122.466 407.888 122.144 407.176 121.57 406.651C120.997 406.126 120.219 405.831 119.408 405.831H57.381Z" fill="#E6E6E6"/>
<path d="M57.381 422.328C56.57 422.328 55.7923 422.623 55.2188 423.148C54.6454 423.673 54.3232 424.385 54.3232 425.128C54.3232 425.871 54.6454 426.583 55.2188 427.108C55.7923 427.633 56.57 427.928 57.381 427.928H119.408C120.219 427.928 120.997 427.633 121.57 427.108C122.144 426.583 122.466 425.871 122.466 425.128C122.466 424.385 122.144 423.673 121.57 423.148C120.997 422.623 120.219 422.328 119.408 422.328H57.381Z" fill="#E6E6E6"/>
<path d="M88.3943 474.649C84.5878 474.649 80.8667 473.615 77.7017 471.678C74.5367 469.742 72.0698 466.989 70.6131 463.769C69.1563 460.548 68.7752 457.005 69.5177 453.586C70.2603 450.167 72.0932 447.027 74.7848 444.562C77.4763 442.097 80.9056 440.418 84.6389 439.738C88.3723 439.058 92.2421 439.407 95.7589 440.741C99.2757 442.074 102.282 444.333 104.397 447.231C106.511 450.13 107.64 453.537 107.641 457.023C107.635 461.696 105.605 466.176 101.997 469.48C98.3891 472.784 93.4971 474.643 88.3943 474.649ZM88.3943 441.048C84.944 441.048 81.5711 441.985 78.7023 443.74C75.8334 445.495 73.5974 447.99 72.277 450.91C70.9566 453.829 70.6112 457.041 71.2843 460.14C71.9574 463.239 73.6189 466.085 76.0587 468.319C78.4984 470.554 81.6069 472.075 84.9909 472.691C88.3749 473.308 91.8826 472.991 95.0703 471.782C98.258 470.573 100.983 468.526 102.899 465.898C104.816 463.271 105.839 460.183 105.839 457.023C105.834 452.788 103.994 448.728 100.723 445.733C97.4528 442.739 93.019 441.054 88.3943 441.049V441.048Z" fill="#E6E6E6"/>
<path d="M252.724 474.65C253.125 474.65 253.523 474.578 253.894 474.437C254.265 474.296 254.602 474.09 254.886 473.83C255.17 473.57 255.395 473.261 255.549 472.922C255.702 472.582 255.782 472.218 255.782 471.85C255.782 471.482 255.702 471.118 255.549 470.779C255.395 470.439 255.17 470.13 254.886 469.87C254.602 469.61 254.265 469.404 253.894 469.263C253.523 469.122 253.125 469.05 252.724 469.05H190.69C189.879 469.05 189.102 469.345 188.528 469.87C187.955 470.395 187.633 471.108 187.633 471.85C187.633 472.593 187.955 473.305 188.528 473.83C189.102 474.355 189.879 474.65 190.69 474.65H252.724Z" fill="#E6E6E6"/>
<path d="M252.724 458.151C253.125 458.151 253.523 458.079 253.894 457.938C254.265 457.798 254.602 457.591 254.886 457.331C255.17 457.071 255.395 456.763 255.549 456.423C255.702 456.083 255.782 455.719 255.782 455.351C255.782 454.984 255.702 454.62 255.549 454.28C255.395 453.94 255.17 453.631 254.886 453.371C254.602 453.111 254.265 452.905 253.894 452.764C253.523 452.624 253.125 452.551 252.724 452.551H190.69C189.879 452.551 189.102 452.846 188.528 453.371C187.955 453.897 187.633 454.609 187.633 455.351C187.633 456.094 187.955 456.806 188.528 457.331C189.102 457.856 189.879 458.151 190.69 458.151H252.724Z" fill="#E6E6E6"/>
<path d="M221.707 405.831C225.513 405.831 229.234 406.864 232.399 408.801C235.564 410.737 238.031 413.49 239.488 416.711C240.945 419.931 241.326 423.475 240.583 426.894C239.84 430.313 238.007 433.453 235.316 435.918C232.624 438.383 229.195 440.061 225.461 440.741C221.728 441.421 217.858 441.072 214.341 439.738C210.824 438.404 207.819 436.145 205.704 433.247C203.589 430.349 202.46 426.941 202.46 423.455C202.466 418.783 204.496 414.303 208.104 410.999C211.712 407.695 216.604 405.836 221.707 405.831ZM221.707 439.431C225.157 439.43 228.529 438.493 231.398 436.737C234.266 434.981 236.502 432.486 237.822 429.567C239.142 426.648 239.487 423.436 238.813 420.337C238.14 417.238 236.478 414.392 234.038 412.158C231.598 409.924 228.49 408.403 225.106 407.787C221.722 407.17 218.215 407.487 215.027 408.696C211.84 409.905 209.115 411.953 207.198 414.58C205.282 417.207 204.259 420.296 204.259 423.455C204.264 427.691 206.104 431.751 209.374 434.746C212.645 437.741 217.079 439.426 221.704 439.431H221.707Z" fill="#E6E6E6"/>
<path d="M277.554 143.69H34.3475C31.8615 143.69 29.847 142.628 29.8433 141.32V82.5645C29.8433 81.2562 31.8605 80.1963 34.3475 80.1946H277.554C280.04 80.1946 282.054 81.2562 282.058 82.5645V141.321C282.055 142.628 280.04 143.688 277.554 143.69ZM34.3475 81.1422C32.8561 81.1422 31.6472 81.7788 31.6453 82.5637V141.32C31.6453 142.105 32.8561 142.741 34.3475 142.741H277.554C279.045 142.741 280.254 142.105 280.256 141.32V82.5645C280.256 81.7797 279.045 81.1439 277.554 81.1431L34.3475 81.1422Z" fill="#E6E6E6"/>
</svg>
